<?xml version="1.0" encoding="UTF-8"?>
<svg id="Layer_2" data-name="Layer 2" xmlns="http://www.w3.org/2000/svg" viewBox="0 0 85.7 84.9">
  <g id="icon">
    <g id="_0Zk0uk.tif" data-name="0Zk0uk.tif">
      <g>
        <path d="M81.77,55.54c-.18.14-1.29-.8-1.54-.93-4.08-2.13-8.32-2.74-12.84-1.67-1.49.35-2.85,1.03-4.27,1.53-1.85-1.67-3.82-3.21-6.05-4.33l-.05-.2c8.03-10.18,2.63-25.75-9.92-28.85-15.75-3.88-29.19,12.61-20.89,27.05.19.34,1.45,2.04,1.38,2.15-8.2,4.1-13.59,12.04-15.69,20.87-5.38-5.71-9.36-12.82-10.96-20.56C-6.96,12.53,37.09-14.98,67.8,8.95c13.98,10.89,19.76,29.69,13.98,46.59Z"/>
        <path d="M56.4,81.36c-1.1.3-2.17.71-3.27,1.01-11.51,3.11-23.9,1.27-33.89-5.21-.54-.35-2.98-1.97-3.24-2.32-.51-.7.41-4.23.69-5.19,1.78-6.15,5.95-11.53,11.35-14.92.44-.27,2.03-1.29,2.39-1.38.54-.13.99.52,1.46.81,6.18,3.86,12.97,3.98,19.36.5.41-.22,1.97-1.36,2.2-1.34,2.1.99,4.02,2.31,5.8,3.79-2.55,2.34-4.51,5.31-5.44,8.67-1.35,4.85-.68,9.22,1.61,13.63.17.33,1.18,1.72.98,1.95Z"/>
        <path d="M40.76,24.82c11.12-.95,18.99,10.91,13.57,20.77-4.76,8.66-16.79,9.83-23.14,2.22-7.22-8.64-1.6-22.04,9.57-22.99Z"/>
        <path d="M71.08,56.79c10.87-.42,18.27,11.38,12.72,20.97-5.13,8.86-17.98,9.72-23.86,1.18-6.32-9.17.04-21.73,11.14-22.16ZM69.31,68.6h-4.28c-.22,0-1.12.74-1.28.98-.58.83-.39,2.13.37,2.78.09.08.71.45.75.45h4.2l.23.23v4.05c0,.78,1.28,1.71,2.03,1.73.65.02,2.17-.82,2.17-1.43v-4.35l.23-.23h4.35c.54,0,1.42-1.43,1.43-2.02,0-.85-.84-2.18-1.73-2.18h-4.05l-.23-.23v-4.2s-.37-.66-.45-.75c-.88-1.03-2.63-.91-3.37.23-.08.12-.38.76-.38.82v4.13Z"/>
      </g>
    </g>
  </g>
</svg>