<?xml version="1.0" encoding="UTF-8"?>
<svg id="Layer_2" data-name="Layer 2" xmlns="http://www.w3.org/2000/svg" viewBox="0 0 555.56 1466.77">
  <g id="Layer_1-2" data-name="Layer 1">
    <g>
      <path d="M358.9,102.76c1.81,2.04,5.92.06,8.27,7.22,3.62,11.02-.25,24.83-7.07,33.93-2.85,3.8-9.35,7.84-11.3,10.68-3.22,4.7-6.1,16.12-10.27,22.7-3.21,5.07-14.18,15.62-15.36,19.61-1.52,5.13-.73,26.63,1.22,31.85,2.37,6.35,11.1,11.91,16.95,15.01,32.45,17.16,73.03,20.66,95.6,53.21,14.49,20.9,22.22,50.54,26.45,75.45,6.19,36.45,2.86,73.17,8.17,109.74,4.96,34.15,17.39,67.14,21.6,101.3,4.16,33.76,6,67.77,11.51,101.4,3.21,19.6,13.3,19.35,24.73,32.21,11.52,12.96,16.02,29.85,22.21,45.73,1.73,4.44,6.78,8.11,1.76,14.29-6.57,8.08-17.25-1.27-19,.46,1.38,16.47,9.75,39.99-7.06,51.4-2.78,1.89-10,4.77-13.3,4.53-2.35-.17-17.78-4.06-19.97-5.08-3.76-1.73-5.19-4.72-8.26-6.72-9.89-6.43-12.22-4.56-18.02-16.94-5.77-12.34-11.15-37.91-13.97-51.97-4.87-24.22-1.85-45.7-7.75-70.2-6.3-26.17-17.33-51.17-25.02-76.89-16.59-55.47-17.37-113.22-24.54-170.31-.62-4.94-2.95-10.38-2.9-15.59l-2.22,2.26c-.41,8.17-3.17,16.13-3.75,24.23-2.78,39.03-3.7,81.78,1.26,120.64,3.75,29.44,10.74,58.12,15.59,87.33,13.03,78.54,13.88,159.62,3.03,238.64-6.76,49.27-22.98,100.32-28.88,148.97-3.82,31.43,4.9,61.68,6.04,92.91,1.91,52.03-11.06,125.19-24.11,175.82-4.49,17.42-14.37,41.43-13.92,59.03.26,10.3,28.53,42.67,34.51,55.48,4.34,9.3,6.22,20.16-1.97,28.05-7.62,7.34-13.72,7.24-22.78,9.18-17.18,3.67-32.15,5.55-50.14,3.76-7.44-.74-15.26-5.68-16.4-13.57-3.18-22.12,1.86-50.33,2-72.86.47-78.41-3.82-157.35-1.05-235.8,1.15-32.53,4.36-61.06,2.91-93.94-2.08-47.34-6.55-94.64-8.93-141.96-2.59-51.49-3.68-103.56-4.2-154.9-.04-4.47-2.23-6.67-5.65-2.84-.19.59-.12,1.21-.19,1.81-2,16.68-.46,41.98-.99,59.97-2.02,68.7-5.49,137.36-9.96,205.89-.53,8.12-2.62,16.71-3.02,24.95-1.87,37.9,2.84,76.02,3.99,114.01,2.59,85.13-1.41,170.48,1.08,255.75.32,11.04,1.1,27.46-.03,38.02-.64,6.02-3.84,12.15-9.75,14.22-6.47,2.27-9.85,1.15-15.67,1.21-16.44.18-37.01-.63-52.45-5.46-17.1-5.34-20.73-20.4-13.88-35.86,6.04-13.65,34.75-43.49,34.75-55.95,0-16.35-7.95-39.4-12.21-55.77-12.21-46.93-23.3-98.36-25.68-147.18-2.48-50.72,11.22-92.24,1.94-143.84-15.91-88.4-36.49-169-32.89-260.97,2.83-72.12,22.4-141.95,28.01-213.8,2.77-35.51,2.51-70.39-1.02-105.94-.78-7.86-2.23-15.8-4-23.49-3.58,2.07-1.54,7.86-2,11.48-7.3,57.14-10.46,121.19-27.01,175.83-8.14,26.88-19.1,52.86-25.62,80.28-4.98,20.96-2.49,33.67-4.39,53.57-.8,8.44-4.27,20.07-6.31,28.66-2.98,12.55-9.03,41.86-19.48,49.46-2.85,2.07-6.44,2.69-9.36,4.62-3.08,2.03-4.53,4.99-8.26,6.72-6.75,3.12-23.32,5.61-30.06,2.32-3.75-1.83-12.19-11.82-13.04-15.93-2.34-11.35,2.83-24.96,2.32-36.29-1.8-2.69-7.09,1.92-10.04,1.91-1.07,0-5.85-1.51-6.79-2.06-7.59-4.5,1.7-18.28,3.81-23.77,8.13-21.21,12.41-35.01,31.51-49.41,1.28-.97,3.67-.86,4.68-1.81,2.91-2.75,6.23-12.39,6.99-16.48,5.94-31.82,7.39-64.68,11.23-96.69,4.31-35.93,17.4-71.07,22.83-107.06,5.12-33.93,2.17-68.6,7.27-102.65,6.76-45.14,19.06-91.49,63.38-112.45,16.4-7.76,65.71-20.61,74.67-33.18,4.92-6.91,6.48-29.29,4.11-36.96-.83-2.71-13.27-15.21-15.91-19.05-4.73-6.88-7.18-19.36-11.18-24.79-1.38-1.88-5.5-3.6-7.4-5.58-8.78-9.15-14.8-23.6-11.52-36.5,2-7.86,9.22-7.84,10.3-12.68,1.45-6.54-.28-17.43.23-24.75C200.97,31.47,230.45.86,274.26.02s79.09,27.36,83.29,73.62c.49,5.38-.97,26.51,1.35,29.12ZM268.61,7.36c-71.77,5.55-71.34,86.9-56.65,140.06,8.44,30.52,37.43,67.31,72.33,63.52,24.75-2.69,52.41-38.36,58.93-60.94C361.58,86.36,354.58.71,268.61,7.36ZM201.92,137.97c-1.45-7.82-1.51-16.8-3.03-24.44-1.21-6.13-4.63-.28-4.96,3.97-.49,6.12,1.2,18.38,7.99,20.47ZM355.66,137.97c3.97-6.69,7.75-15.81,5.18-23.65-1.11-3.4-2.72-5.41-4.11-.77-2.08,6.97-1.62,16.61-3.06,23.92l1.99.5ZM316.74,229.41c-1.03-5.77,0-17.42,0-23.98,0-1.11-1.72-1.38-3.03-1.07-2.45.59-9.3,5.79-12.59,7.41-15,7.39-27.01,8.58-42.82,2.18-2.99-1.21-15.61-9.39-16.89-9.02-2.75.8-1.27,15.9-1.56,19.46-1.08,12.95-4.97,16.8-15.64,23.32-41.87,25.57-83.82,16.15-108.88,69.9-24.92,53.44-16.41,108.46-24.36,164.49-4.91,34.57-18.81,69.96-22.75,103.15-4.3,36.22-4.23,75.77-13.71,111.2-3.32,12.43-12.82,14.15-20.86,22.09-13.63,13.45-18.19,34.72-26.43,51.55-.02,1.66,1.05,2.28,2.54,2.5,8.78,1.32,14.42-16.59,19.41-21.56l2.56.5c.67,1.04.56,2.31.51,3.48-.75,16.9-11.46,42.42-7.34,58.32.84,3.26,1.93,5.84,5.77,5.22l7.78-45.24c.99-2.29,3.03-4.19,5.71-3.76,2.72,7.02-1.46,13.94-2.73,20.74-1.51,8.15-3.75,18.69-4.24,26.73-.33,5.44-1.04,10.27,6.02,8.04,5.04-1.59,3.3-5.12,4.39-8.61,3.73-11.98,3.78-25.15,6.8-37.16,1.99-7.89,7.87-7.98,6.76,1.77-1.36,11.94-7.36,25.77-9.6,37.41-1.53,7.98,8.96,3.32,11.76-3.27,3.12-7.32,5.36-22.03,6.72-30.25.94-5.72-2.33-13.67,7.07-12.42.6,13.05-7.23,24.93-5.99,37.98,6.58.84,9.3-8.08,11.26-13.21,4.4-11.51,13.27-44.46,14.58-56.35,2.26-20.33-.67-34.76,4.39-56.57,10.61-45.77,31.07-86.53,38.4-134.45,6.55-42.84,9.78-87.35,14.24-130.65,1.12-10.88,4.53-20.21,2.89-31.91-.6-4.3-4.03-7.79-2.9-12.58,5.57-1.51,8.97,8.76,10.3,13.17,13.74,45.54,14.37,112.82,10.67,160.23-5.13,65.7-22.63,129.04-26.96,194.87-5.35,81.41,8.15,160.61,23.21,239.58,5.09,26.68,15.18,59.16,13.71,86.19-.97,17.91-5.76,37.91-6.97,55.98-3.18,47.61,6.64,113.07,17.21,159.64,5.9,26,22.73,63.14,19.72,89.19-1.28,11.11-27.23,41.03-34.14,53.77-2.47,4.56-4.49,12.89-2.29,17.66,3.71,8.02,5.66-8.99,10.94-7.98,5,4.38-4.46,13.25,1.19,16.82,10.11,6.39,6.23-14.89,12.69-13.76,6.64,1.15-5.45,18.34,6.14,17.79,7.02-.33,2.99-10.32,7.4-15.4,2.21-2.54,6.35-2.15,5.88,1.8-.66,5.54-7.94,17.36,5.66,14.74,4.07-.78,1.89-5.13,2.71-8.28.94-3.62,5.52-14.09,10.15-12.63s-3.79,12.46-3.39,16.38c.82,8,17.08,6.46,20.39-1.56,5.16-12.48-.85-45.49-1.46-60.33-3.8-91.96,6.6-185.65.03-277.85-1.68-23.54-4.23-44.78-3.02-69.01,2.72-54.6,10.43-109.05,9.98-163.89l3.08-47.89c-2.1-26.07,4.09-56.45,1.01-82.04-.66-5.53-9.08-4.6-9.09-8.93-.01-4.56,7.93-1.54,10.49-1.46,4.89.16,10.17.15,15.07,0,2.77-.08,11.46-2.67,12.42.49,1.42,4.66-8.58,5.34-9.01,7.14v72.82c2.92,74.77,9.02,149.36,12.97,223.85,2.13,40-3.17,75.35-3.99,114.84-1.67,80.13,3.34,161.01,1.08,240.92-.4,14.23-3.19,28.58-2.02,42.91.17,2.03.83,6.84,1.43,8.56,1.6,4.62,15.42,9.82,18.58,4.51,5.07-8.5-6.29-13.41-2.12-19.11,2.96-4.05,8.27,5.19,9.27,7.84,2.43,6.42-2.77,18.09,9.51,12.95,7.33-3.06-1.76-13.3,1.26-19.23,9.29-.34,5.23,13.87,9.38,17.07,16.14,3.49,2.12-12.46,9.08-18.06,5.43,3.78,4.53,10.76,7.12,16.05,15.34-.46-.01-14.47,6.37-17.63,5.42-2.68,5.28,9.06,7.49,9.56,9.1-4.24,3.35-15.51,0-22.01-7.53-14.62-19.87-26.75-28.34-40.59-9.05-14.8-2.7-33.18,1.36-48.33,18.18-67.84,35.62-146.86,30.44-217.34-1.61-21.97-7.66-43.75-5.96-65.95,2.4-31.49,12.8-66.02,18.73-97.18,18.61-97.91,25.54-192.27,10.11-291.47-4.42-28.44-11.63-56.54-15.75-85.16-7.78-53.98-8.24-140.61,7.93-192.7.91-2.92,4.06-11.56,7.44-11.59l2.41,1.68c-.15,4.59-3.02,8.48-3.65,13.1-1.15,8.54,1.73,14.79,2.61,22.85,5.1,46.64,8.95,93.92,15.83,140.05s27.5,88.01,37.76,134.09c3.87,17.38,2.36,28.62,3.4,45.57.79,12.89,11.59,61.95,17.62,72.3,1.42,2.43,3.9,5.09,5.9,7.1,3.43.74,2.55-7.19,2.35-9.36-.47-4.99-8.13-26.88-4.94-29.17l4.09.05c2.9,2.72,1.48,6.61,2.09,9.9,1.83,9.78,3.36,25.11,7.36,33.61,1.28,2.72,6.8,8.81,10.07,6.08,3.1-2.59-1.18-10.1-2.11-14.05-2.4-10.13-3.79-20.51-6.5-30.57,3.31-9.79,6.72.01,7.78,5.31,2.54,12.73,4.09,25.75,6.44,38.52,4.04,5.58,10.92,7.41,10.72-1.64-.18-8.42-3.43-22.15-5.18-30.88-.9-4.47-5-14.12-3.24-17.74,1.47-3.01,5.31-2.43,6.22.76,3.12,12.67,3.34,28.03,6.54,40.41.72,2.8,2.34,9.31,6.21,4.8,2.03-2.36,1.8-15.81,1.52-19.53-.85-11.29-5.2-23.87-6.95-35.02-.2-1.29-1.13-10.26-1-10.79.37-1.47,2.61-2.2,3.8-1.5,1.12.65,8.01,15.64,12.15,19.31,2.77,2.45,9.4,5.79,8.98.11-6.79-16.27-11.35-34.52-22.99-48.04-6.66-7.74-18.36-13.33-22.39-21.56-1.07-2.19-1.54-4.53-2.13-6.86-8.68-34.5-9.02-74.11-13.56-109.34-3.65-28.33-13.45-55.34-18.61-83.31-9.76-52.92-3.19-106.04-17.71-158.16-3.42-12.27-10.57-29.81-17.5-40.45-20.25-31.08-63.36-35.98-93.71-52.11-7.14-3.8-20.58-12.47-22.09-20.86Z"/>
      <path d="M204.54,1060.43c4.96.3,7.49,3.43,12.87,3.91,2.55.23,5.18.12,7.72-.24,3.24-.47,12.79-6.43,12.77-1.23-6.36,11.75-28.72,11.58-34.86-.16l1.5-2.27Z"/>
      <path d="M319.33,1060.4c7.34,2.66,13.52,5.21,21.64,3.72,4.04-.74,9.73-7.3,11.71-1.29-7.93,11.01-27.72,12.37-34.97.02l1.63-2.46Z"/>
      <path d="M67.13,728.59c-1.64,13.4-14.76,16.73-25.95,18.98.06-6.26,8.39-6.98,13.28-10.18,4.58-3,7.23-8.33,12.67-8.79Z"/>
      <path d="M488.96,727.6c.96.02,12.18,10.26,14.97,11.98,1.92,1.19,10.13,2.79,9.49,6.47-.41,2.37-2.61.59-3.41.45-7.1-1.21-14.54-3.89-18.99-9.99-.78-1.06-5.42-8.98-2.06-8.91Z"/>
      <path d="M271.11,594.96c8.12-9.64,20.78,5.47,8.73,9.28-6.11,1.93-12.73-4.52-8.73-9.28Z"/>
    </g>
  </g>
</svg>