<?xml version="1.0" encoding="UTF-8"?><svg xmlns="http://www.w3.org/2000/svg" viewBox="0 0 450.23 454.5"><defs><style>.cls-1{letter-spacing:-.02em;}.cls-2{fill:#7c5d82;}.cls-2,.cls-3,.cls-4,.cls-5,.cls-6,.cls-7,.cls-8,.cls-9,.cls-10,.cls-11,.cls-12,.cls-13,.cls-14,.cls-15,.cls-16,.cls-17,.cls-18,.cls-19{stroke-miterlimit:10;}.cls-2,.cls-4,.cls-6,.cls-7,.cls-9,.cls-10,.cls-14,.cls-15,.cls-16,.cls-18,.cls-19{stroke:#2f3131;}.cls-20{font-size:7px;}.cls-20,.cls-21,.cls-22,.cls-23,.cls-24,.cls-25,.cls-26,.cls-27,.cls-28,.cls-29,.cls-30{font-family:OpenSansSoft-Bold, 'Open Sans Soft';}.cls-20,.cls-21,.cls-22,.cls-23,.cls-24,.cls-25,.cls-26,.cls-28,.cls-29{fill:#2f3131;}.cls-3{fill:#cdbbcf;}.cls-3,.cls-5,.cls-8,.cls-11,.cls-12,.cls-13,.cls-17{stroke:#231f20;}.cls-4{fill:#375c6b;}.cls-5{fill:#e1b16a;}.cls-21{font-size:14px;}.cls-22{font-size:6px;}.cls-6{fill:#cf5a57;}.cls-23{font-size:12px;}.cls-31{isolation:isolate;}.cls-24,.cls-27{font-size:11px;}.cls-7{fill:#b64e4f;}.cls-25{font-size:10px;}.cls-8,.cls-18{fill:#a1be95;}.cls-32{fill:#e6e6e6;}.cls-9{fill:#976e9b;}.cls-10{fill:#8ba281;mix-blend-mode:darken;}.cls-26,.cls-30{font-size:8px;}.cls-11{stroke-width:4px;}.cls-11,.cls-33{fill:none;}.cls-12{fill:#e8b5ab;}.cls-13,.cls-14{fill:#426f87;}.cls-27,.cls-30{fill:#414042;}.cls-34{letter-spacing:0em;}.cls-15{fill:#648985;}.cls-16,.cls-17{fill:#78a5a2;}.cls-28{font-size:13px;}.cls-19{fill:#c69a5f;}.cls-29{font-size:9px;}</style></defs><g class="cls-31"><g id="Layer_2"><g id="FirstCircle"><g><path class="cls-18" d="M222.55,219.91h102.66c-.16-38.56-21.2-72.18-52.4-90.16-.2-.12-.46-.05-.57,.15l-50.83,88.04,1.14,1.97Z"/><path class="cls-6" d="M273.17,129.28c-15.25-8.71-32.91-13.69-51.73-13.69s-35.67,4.76-50.68,13.1l50.25,88.96,52.16-88.37Z"/><path class="cls-16" d="M118.31,220.23c-.07,.07,.07-.07,0,0-.1,38.51,21.06,70.8,51.99,89.01,.08,.05,.19,.02,.23-.06l50.6-91.6c.06-.11-.02-.25-.15-.25l-102.68,2.91Z"/><path class="cls-9" d="M220.49,217.65l-50.86-88.78c-31.43,17.92-51.68,52.63-51.84,91.36l102.7-2.58h0Z"/><path class="cls-14" d="M324.36,220.76l-103.55-.28,34.13,57.49,19.02,32.44c30.25-18.31,50.47-51.52,50.47-89.46,0-.15-.06-.05-.07-.2Z"/><path class="cls-5" d="M219.97,219.73h0l-51.24,90.02c15.49,9.08,33.52,14.29,52.78,14.29s38.1-5.45,53.82-14.91l-18.81-32.57-36.55-56.84Z"/></g><text class="cls-21" transform="translate(203.03 149.43)"><tspan x="0" y="0">Mad</tspan></text><text class="cls-21" transform="translate(156.49 200.61) rotate(-52.02) scale(1.2 1)"><tspan x="0" y="0">S</tspan></text><text class="cls-21" transform="translate(162.16 193.34) rotate(-52.02) scale(1.2 1)"><tspan x="0" y="0">a</tspan></text><text class="cls-21" transform="translate(168.35 185.42) rotate(-52.02) scale(1.2 1)"><tspan x="0" y="0">d</tspan></text><text class="cls-29" transform="translate(200.6 297.63) scale(1.2 1)"><tspan x="0" y="0">p</tspan><tspan class="cls-1" x="5.63" y="0">ow</tspan><tspan class="cls-34" x="18.56" y="0">erful</tspan></text><text class="cls-27" transform="translate(277.16 272.01) rotate(-53.69)"><tspan x="0" y="0">J</tspan></text><text class="cls-27" transform="translate(279.31 269.09) rotate(-53.69)"><tspan x="0" y="0">o</tspan></text><text class="cls-27" transform="translate(283.18 263.83) rotate(-53.69)"><tspan x="0" y="0">y</tspan></text><text class="cls-27" transform="translate(286.88 258.8) rotate(-53.69)"><tspan x="0" y="0">f</tspan></text><text class="cls-27" transform="translate(289.38 255.39) rotate(-53.68)"><tspan x="0" y="0">u</tspan></text><text class="cls-27" transform="translate(293.59 249.66) rotate(-53.68)"><tspan x="0" y="0">l</tspan></text><g><text class="cls-28" transform="translate(281.79 161.24) rotate(60.73)"><tspan x="0" y="0">S</tspan></text><text class="cls-28" transform="translate(285.26 167.44) rotate(60.73)"><tspan x="0" y="0">c</tspan></text><text class="cls-28" transform="translate(288.51 173.22) rotate(60.73)"><tspan x="0" y="0">a</tspan></text><text class="cls-28" transform="translate(292.3 179.99) rotate(60.73)"><tspan x="0" y="0">r</tspan></text><text class="cls-28" transform="translate(295.04 184.87) rotate(60.74)"><tspan x="0" y="0">e</tspan></text><text class="cls-28" transform="translate(298.76 191.52) rotate(60.73)"><tspan x="0" y="0">d</tspan></text></g><text/><text class="cls-29" transform="translate(135.19 240.88) rotate(56.78) scale(1.2 1)"><tspan x="0" y="0">P</tspan></text><text class="cls-29" transform="translate(138.87 246.49) rotate(56.79) scale(1.2 1)"><tspan x="0" y="0">E</tspan></text><text class="cls-29" transform="translate(142.14 251.49) rotate(56.79) scale(1.2 1)"><tspan x="0" y="0">A</tspan></text><text class="cls-29" transform="translate(146.09 257.51) rotate(56.78) scale(1.2 1)"><tspan x="0" y="0">C</tspan></text><text class="cls-29" transform="translate(149.81 263.21) rotate(56.78) scale(1.2 1)"><tspan x="0" y="0">E</tspan></text><text class="cls-29" transform="translate(153.09 268.2) rotate(56.78) scale(1.2 1)"><tspan x="0" y="0">F</tspan></text><text class="cls-29" transform="translate(156.28 273.09) rotate(56.78) scale(1.2 1)"><tspan x="0" y="0">U</tspan></text><text class="cls-29" transform="translate(160.7 279.83) rotate(56.78) scale(1.2 1)"><tspan x="0" y="0">L</tspan></text></g><g id="Midcircle"><g><path class="cls-11" d="M53.3,220.37c0-.15,0-.3,0-.45"/><path class="cls-4" d="M318.32,255.92l59.22,21.55c3.4-9.01,6.04-18.38,7.86-28.05l-62.06-10.94c-1.17,6.01-2.86,11.84-5.02,17.44Z"/><path class="cls-7" d="M186.51,121.73l-22.02-60.51c-9.32,3.32-18.25,7.44-26.73,12.29l32.16,55.7c5.25-2.96,10.8-5.46,16.59-7.48Z"/><path class="cls-7" d="M204.12,116.65l-11.19-63.46c-9.79,1.64-19.3,4.13-28.44,7.39l22.02,60.51c5.65-1.96,11.53-3.46,17.61-4.43Z"/><path class="cls-2" d="M118.06,218.37c0-5.41,.4-10.71,1.17-15.88l-63.75-11.24c-1.44,8.83-2.2,17.89-2.2,27.12,0,.52,.01,1.03,.02,1.55H118.08c0-.52-.02-1.03-.02-1.55Z"/><path class="cls-7" d="M221.2,115.28c.33,0,.65,0,.97,.01V50.89c-.47,0-.93-.02-1.4-.02-9.49,0-18.79,.8-27.85,2.32l11.19,63.46c5.55-.89,11.25-1.36,17.09-1.36Z"/><path class="cls-2" d="M123.41,184.98l-60.71-22.1c-3.2,9.12-5.63,18.6-7.22,28.36l63.75,11.24c.9-6.04,2.31-11.89,4.18-17.51Z"/><path class="cls-2" d="M130.63,168.4l-55.82-32.23c-4.78,8.47-8.84,17.4-12.11,26.71l60.71,22.1c1.93-5.79,4.35-11.33,7.21-16.58Z"/><path class="cls-7" d="M240.18,116.96l11.16-63.3c-9.47-1.75-19.21-2.69-29.17-2.77V115.3c6.15,.05,12.16,.62,18.01,1.67Z"/><path class="cls-2" d="M140.71,153.3l-49.28-41.35c-6.22,7.55-11.78,15.66-16.62,24.23l55.82,32.23c2.92-5.35,6.29-10.4,10.08-15.1Z"/><path class="cls-2" d="M154.9,138.9l-41.31-49.23c-8.06,6.72-15.48,14.18-22.16,22.28l49.28,41.35c4.24-5.26,8.99-10.09,14.19-14.4Z"/><path class="cls-2" d="M169.92,128.56l-32.16-55.7c-8.56,4.89-16.65,10.53-24.17,16.8l41.31,49.23c4.67-3.87,9.69-7.34,15.02-10.34Z"/><path class="cls-7" d="M257.64,121.66l21.9-60.18c-9.05-3.39-18.48-6.02-28.19-7.82l-11.16,63.3c6.02,1.08,11.85,2.66,17.45,4.7Z"/><path class="cls-10" d="M323.96,202.53l62.05-10.94c-1.61-9.75-4.07-19.22-7.29-28.33l-59.22,21.56c1.99,5.68,3.49,11.6,4.47,17.71Z"/><path class="cls-10" d="M312.7,168.94l54.64-31.55c-4.85-8.55-10.42-16.63-16.65-24.15l-48.44,40.65c3.92,4.68,7.42,9.71,10.45,15.05Z"/><path class="cls-10" d="M325.28,219.15c0,.52-.01,1.04-.02,1.55h63c0-.52,.02-1.03,.02-1.55,0-9.39-.79-18.59-2.27-27.56l-62.05,10.94c.86,5.4,1.32,10.95,1.32,16.62Z"/><path class="cls-10" d="M319.49,184.82l59.22-21.56c-3.29-9.29-7.36-18.2-12.16-26.65l-54.64,31.55c3,5.27,5.54,10.84,7.58,16.66Z"/><path class="cls-7" d="M273.43,128.96l31.88-55.21c-8.17-4.79-16.79-8.9-25.77-12.27l-21.9,60.18c5.5,2,10.78,4.45,15.79,7.3Z"/><path class="cls-10" d="M302.25,153.89l48.44-40.65c-6.25-7.56-13.16-14.55-20.63-20.91l-40.79,48.62c4.7,3.92,9.05,8.25,12.98,12.94Z"/><path class="cls-10" d="M288.83,139.65l40.79-48.62c-7.46-6.35-15.48-12.05-23.97-17.03l-31.88,55.21c5.34,3.04,10.38,6.53,15.06,10.43Z"/><path class="cls-4" d="M273.77,308.45l31.5,54.57c8.37-4.9,16.27-10.51,23.63-16.73l-40.49-48.26c-4.56,3.88-9.46,7.37-14.64,10.43Z"/><path class="cls-32" d="M325.26,219.92c0,.15,0,.3,0,.45h63c0-.15,0-.3,0-.45h-63Z"/><path class="cls-19" d="M257.53,316.22l21.55,59.22c9.13-3.39,17.89-7.56,26.19-12.42l-31.5-54.57c-5.15,3.04-10.58,5.64-16.24,7.77Z"/><path class="cls-19" d="M220.78,322.87c-5.69,0-11.25-.46-16.67-1.34l-10.94,62.06c8.98,1.49,18.2,2.28,27.61,2.28,.47,0,.93-.01,1.4-.02v-63c-.47,0-.93,.02-1.4,.02Z"/><path class="cls-19" d="M222.18,322.85v63c9.87-.08,19.53-1.01,28.93-2.73l-10.94-62.06c-5.84,1.1-11.85,1.7-17.98,1.78Z"/><path class="cls-19" d="M240.16,321.07l10.94,62.06c9.64-1.76,18.99-4.35,27.98-7.69l-21.55-59.22c-5.58,2.1-11.39,3.73-17.37,4.85Z"/><path class="cls-4" d="M310.37,272.18l54.57,31.5c4.92-8.3,9.15-17.06,12.6-26.2l-59.22-21.55c-2.19,5.67-4.85,11.11-7.95,16.25Z"/><path class="cls-32" d="M118.08,219.92H53.3c0,.15,0,.3,0,.45H118.08c0-.15,0-.3,0-.45Z"/><path class="cls-4" d="M323.34,238.48l62.06,10.94c1.77-9.43,2.74-19.13,2.86-29.05h-63c-.12,6.18-.77,12.23-1.92,18.11Z"/><path class="cls-4" d="M299.78,286.77l48.26,40.49c6.29-7.34,11.94-15.23,16.9-23.59l-54.57-31.5c-3.11,5.17-6.66,10.06-10.59,14.6Z"/><path class="cls-4" d="M288.42,298.02l40.49,48.26c6.87-5.82,13.27-12.17,19.13-19.01l-48.26-40.49c-3.49,4.03-7.3,7.79-11.36,11.25Z"/><path class="cls-19" d="M186.52,317.05l-21.58,59.28c9.08,3.21,18.51,5.66,28.23,7.27l10.94-62.06c-6.07-.98-11.95-2.49-17.59-4.49Z"/><path class="cls-15" d="M119.79,237.75l-63.72,11.23c1.79,9.68,4.41,19.07,7.79,28.09l60.58-22.05c-2.01-5.55-3.58-11.33-4.66-17.28Z"/><path class="cls-15" d="M118.08,220.37H53.3c.11,9.76,1.06,19.32,2.78,28.61l63.72-11.23c-1.02-5.65-1.6-11.45-1.71-17.38Z"/><path class="cls-15" d="M131.96,271.27l-55.55,32.07c4.94,8.38,10.6,16.3,16.88,23.66l48.86-41c-3.8-4.59-7.21-9.51-10.19-14.73Z"/><path class="cls-15" d="M124.45,255.03l-60.58,22.05c3.43,9.16,7.64,17.94,12.55,26.26l55.55-32.07c-2.94-5.15-5.46-10.58-7.51-16.24Z"/><path class="cls-19" d="M169.4,309.13l-31.62,54.76c8.6,4.92,17.69,9.08,27.16,12.43l21.58-59.28c-5.99-2.12-11.72-4.77-17.12-7.91Z"/><path class="cls-15" d="M154.75,298.77l-40.8,48.62c7.43,6.16,15.4,11.69,23.83,16.51l31.62-54.76c-5.2-3.02-10.1-6.5-14.65-10.37Z"/><path class="cls-15" d="M142.16,286l-48.86,41c6.29,7.37,13.2,14.2,20.66,20.38l40.8-48.62c-4.56-3.87-8.77-8.15-12.6-12.76Z"/></g><g id="Text"><text class="cls-25" transform="translate(293.44 121.89) rotate(-53.83) scale(.81 1)"><tspan x="0" y="0">r</tspan></text><text class="cls-25" transform="translate(295.51 119.06) rotate(-53.83) scale(.81 1)"><tspan x="0" y="0">e</tspan></text><text class="cls-25" transform="translate(298.34 115.19) rotate(-53.83) scale(.81 1)"><tspan x="0" y="0">j</tspan></text><text class="cls-25" transform="translate(299.79 113.21) rotate(-53.83) scale(.81 1)"><tspan x="0" y="0">e</tspan></text><text class="cls-25" transform="translate(302.61 109.35) rotate(-53.83) scale(.81 1)"><tspan x="0" y="0">c</tspan></text><text class="cls-25" transform="translate(305.06 106) rotate(-53.83) scale(.81 1)"><tspan x="0" y="0">t</tspan></text><text class="cls-25" transform="translate(307.14 103.15) rotate(-53.83) scale(.81 1)"><tspan x="0" y="0">e</tspan></text><text class="cls-25" transform="translate(309.96 99.3) rotate(-53.83) scale(.81 1)"><tspan x="0" y="0">d</tspan></text><text class="cls-25" transform="translate(308.64 135.91) rotate(-44.34) scale(.81 1)"><tspan x="0" y="0">c</tspan></text><text class="cls-25" transform="translate(311.61 133.01) rotate(-44.34) scale(.81 1)"><tspan x="0" y="0">o</tspan></text><text class="cls-25" transform="translate(315.19 129.51) rotate(-44.34) scale(.81 1)"><tspan x="0" y="0">n</tspan></text><text class="cls-25" transform="translate(318.97 125.82) rotate(-44.34) scale(.81 1)"><tspan x="0" y="0">f</tspan><tspan x="3.86" y="0">u</tspan></text><text class="cls-25" transform="translate(324.97 119.95) rotate(-44.34) scale(.81 1)"><tspan x="0" y="0">s</tspan></text><text class="cls-25" transform="translate(327.85 117.14) rotate(-44.34) scale(.81 1)"><tspan x="0" y="0">e</tspan></text><text class="cls-25" transform="translate(331.26 113.8) rotate(-44.34) scale(.81 1)"><tspan x="0" y="0">d</tspan></text><text class="cls-25" transform="translate(320.93 155.44) rotate(-33.15) scale(.81 1)"><tspan x="0" y="0">h</tspan></text><text class="cls-25" transform="translate(325.35 152.55) rotate(-33.15) scale(.81 1)"><tspan x="0" y="0">e</tspan></text><text class="cls-25" transform="translate(329.35 149.94) rotate(-33.15) scale(.81 1)"><tspan x="0" y="0">l</tspan></text><text class="cls-25" transform="translate(331.4 148.6) rotate(-33.15) scale(.81 1)"><tspan x="0" y="0">p</tspan></text><text class="cls-25" transform="translate(335.68 145.81) rotate(-33.15) scale(.81 1)"><tspan x="0" y="0">l</tspan><tspan x="3.05" y="0">e</tspan></text><text class="cls-25" transform="translate(341.75 141.84) rotate(-33.15) scale(.81 1)"><tspan x="0" y="0">s</tspan></text><text class="cls-25" transform="translate(345.1 139.65) rotate(-33.15) scale(.81 1)"><tspan x="0" y="0">s</tspan></text><text class="cls-25" transform="translate(324.33 175.75) rotate(-24.47) scale(.81 1)"><tspan x="0" y="0">s</tspan></text><text class="cls-25" transform="translate(327.98 174.09) rotate(-24.48) scale(.81 1)"><tspan x="0" y="0">u</tspan></text><text class="cls-25" transform="translate(332.78 171.91) rotate(-24.47) scale(.81 1)"><tspan x="0" y="0">b</tspan></text><text class="cls-25" transform="translate(337.43 169.79) rotate(-24.47) scale(.81 1)"><tspan x="0" y="0">m</tspan></text><text class="cls-25" transform="translate(344.62 166.52) rotate(-24.47) scale(.81 1)"><tspan x="0" y="0">i</tspan><tspan x="3.04" y="0">s</tspan></text><text class="cls-25" transform="translate(350.51 163.83) rotate(-24.48) scale(.81 1)"><tspan x="0" y="0">s</tspan></text><text class="cls-25" transform="translate(354.15 162.18) rotate(-24.47) scale(.81 1)"><tspan x="0" y="0">i</tspan></text><text class="cls-25" transform="translate(356.42 161.14) rotate(-24.47) scale(.81 1)"><tspan x="0" y="0">v</tspan></text><text class="cls-25" transform="translate(360.45 159.31) rotate(-24.47) scale(.81 1)"><tspan x="0" y="0">e</tspan></text><text class="cls-25" transform="translate(364.83 157.32) rotate(-24.47) scale(.81 1)"><tspan x="0" y="0">r</tspan></text><text class="cls-25" transform="translate(330.79 195.74) rotate(-13.82) scale(.81 1)"><tspan x="0" y="0">i</tspan></text><text class="cls-25" transform="translate(333.2 195.15) rotate(-13.82) scale(.81 1)"><tspan x="0" y="0">n</tspan></text><text class="cls-25" transform="translate(338.33 193.89) rotate(-13.82) scale(.81 1)"><tspan x="0" y="0">s</tspan></text><text class="cls-25" transform="translate(342.22 192.93) rotate(-13.82) scale(.81 1)"><tspan x="0" y="0">e</tspan></text><text class="cls-25" transform="translate(346.87 191.79) rotate(-13.82) scale(.81 1)"><tspan x="0" y="0">c</tspan><tspan x="5.09" y="0">u</tspan></text><text class="cls-25" transform="translate(356.03 189.53) rotate(-13.82) scale(.81 1)"><tspan x="0" y="0">r</tspan></text><text class="cls-25" transform="translate(359.41 188.7) rotate(-13.82) scale(.81 1)"><tspan x="0" y="0">e</tspan></text><text class="cls-25" transform="translate(335.71 214.44) rotate(-6.41) scale(.81 1)"><tspan x="0" y="0">a</tspan></text><text class="cls-25" transform="translate(340.57 213.89) rotate(-6.41) scale(.81 1)"><tspan x="0" y="0">n</tspan></text><text class="cls-25" transform="translate(345.81 213.3) rotate(-6.41) scale(.81 1)"><tspan x="0" y="0">x</tspan></text><text class="cls-25" transform="translate(350.46 212.78) rotate(-6.41) scale(.81 1)"><tspan x="0" y="0">i</tspan></text><text class="cls-25" transform="translate(352.92 212.5) rotate(-6.41) scale(.81 1)"><tspan x="0" y="0">o</tspan></text><text class="cls-25" transform="translate(357.89 211.94) rotate(-6.41) scale(.81 1)"><tspan x="0" y="0">u</tspan></text><text class="cls-25" transform="translate(363.13 211.35) rotate(-6.41) scale(.81 1)"><tspan x="0" y="0">s</tspan></text><text class="cls-25" transform="translate(337.55 234.25) rotate(6.47)"><tspan x="0" y="0">e</tspan></text><text class="cls-25" transform="translate(343.19 234.89) rotate(6.47)"><tspan x="0" y="0">x</tspan></text><text class="cls-25" transform="translate(348.72 235.52) rotate(6.47)"><tspan x="0" y="0">c</tspan></text><text class="cls-25" transform="translate(353.8 236.1) rotate(6.47)"><tspan x="0" y="0">i</tspan></text><text class="cls-25" transform="translate(356.79 236.44) rotate(6.47)"><tspan x="0" y="0">t</tspan></text><text class="cls-25" transform="translate(361.08 236.92) rotate(6.47)"><tspan x="0" y="0">e</tspan></text><text class="cls-25" transform="translate(366.89 237.58) rotate(6.47)"><tspan x="0" y="0">d</tspan></text><text class="cls-25" transform="translate(333.28 253.02) rotate(15.95)"><tspan x="0" y="0">v</tspan></text><text class="cls-25" transform="translate(338.74 254.58) rotate(15.95)"><tspan x="0" y="0">i</tspan></text><text class="cls-25" transform="translate(341.66 255.41) rotate(15.95)"><tspan x="0" y="0">b</tspan></text><text class="cls-25" transform="translate(347.66 257.13) rotate(15.95)"><tspan x="0" y="0">r</tspan></text><text class="cls-25" transform="translate(351.82 258.31) rotate(15.95)"><tspan x="0" y="0">a</tspan></text><text class="cls-25" transform="translate(357.54 259.95) rotate(15.95)"><tspan x="0" y="0">n</tspan></text><text class="cls-25" transform="translate(363.78 261.73) rotate(15.94)"><tspan x="0" y="0">t</tspan></text><text class="cls-25" transform="translate(312.63 289.16) rotate(33.92)"><tspan x="0" y="0">p</tspan></text><text class="cls-25" transform="translate(317.85 292.67) rotate(33.92)"><tspan x="0" y="0">l</tspan></text><text class="cls-25" transform="translate(320.36 294.36) rotate(33.92)"><tspan x="0" y="0">a</tspan></text><text class="cls-25" transform="translate(325.3 297.68) rotate(33.92)"><tspan x="0" y="0">y</tspan></text><text class="cls-25" transform="translate(330 300.84) rotate(33.92)"><tspan x="0" y="0">f</tspan></text><text class="cls-25" transform="translate(333.19 302.99) rotate(33.92)"><tspan x="0" y="0">u</tspan></text><text class="cls-25" transform="translate(338.57 306.6) rotate(33.92)"><tspan x="0" y="0">l</tspan></text><text class="cls-25" transform="translate(298.66 302.46) rotate(44.81) scale(.71 1)"><tspan x="0" y="0">c</tspan></text><text class="cls-25" transform="translate(301.23 305.01) rotate(44.81) scale(.71 1)"><tspan x="0" y="0">r</tspan></text><text class="cls-25" transform="translate(303.39 307.16) rotate(44.81) scale(.71 1)"><tspan x="0" y="0">e</tspan></text><text class="cls-25" transform="translate(306.36 310.11) rotate(44.81) scale(.71 1)"><tspan x="0" y="0">a</tspan></text><text class="cls-25" transform="translate(309.37 313.1) rotate(44.81) scale(.71 1)"><tspan x="0" y="0">t</tspan></text><text class="cls-25" transform="translate(311.52 315.24) rotate(44.81) scale(.71 1)"><tspan x="0" y="0">i</tspan></text><text class="cls-25" transform="translate(313.08 316.78) rotate(44.81) scale(.71 1)"><tspan x="0" y="0">v</tspan></text><text class="cls-25" transform="translate(315.83 319.52) rotate(44.81) scale(.71 1)"><tspan x="0" y="0">e</tspan></text><text class="cls-25" transform="translate(318.78 322.45) rotate(44.81) scale(.71 1)"><tspan x="0" y="0"> </tspan></text><text class="cls-25" transform="translate(287.1 313.9) rotate(56.18)"><tspan x="0" y="0">a</tspan></text><text class="cls-25" transform="translate(290.42 318.86) rotate(56.19)"><tspan x="0" y="0">w</tspan></text><text class="cls-25" transform="translate(295.1 325.84) rotate(56.18)"><tspan x="0" y="0">a</tspan></text><text class="cls-25" transform="translate(298.43 330.81) rotate(56.18)"><tspan x="0" y="0">r</tspan></text><text class="cls-25" transform="translate(300.81 334.37) rotate(56.18)"><tspan x="0" y="0">e</tspan></text><text class="cls-25" transform="translate(269.9 322.67) rotate(66.42)"><tspan x="0" y="0">p</tspan></text><text class="cls-25" transform="translate(272.4 328.39) rotate(66.42)"><tspan x="0" y="0">r</tspan></text><text class="cls-25" transform="translate(274.13 332.35) rotate(66.42)"><tspan x="0" y="0">o</tspan></text><text class="cls-25" transform="translate(276.57 337.96) rotate(66.42)"><tspan x="0" y="0">u</tspan></text><text class="cls-25" transform="translate(279.17 343.91) rotate(66.42)"><tspan x="0" y="0">d</tspan></text><text class="cls-23" transform="translate(248.43 330.38) rotate(75.55) scale(.63 1)"><tspan x="0" y="0">r</tspan></text><text class="cls-23" transform="translate(249.24 333.53) rotate(75.55) scale(.63 1)"><tspan x="0" y="0">e</tspan></text><text class="cls-23" transform="translate(250.35 337.83) rotate(75.55) scale(.63 1)"><tspan x="0" y="0">s</tspan></text><text class="cls-23" transform="translate(251.27 341.42) rotate(75.55) scale(.63 1)"><tspan x="0" y="0">p</tspan></text><text class="cls-23" transform="translate(252.45 346.01) rotate(75.55) scale(.63 1)"><tspan x="0" y="0">e</tspan></text><text class="cls-23" transform="translate(253.56 350.31) rotate(75.55) scale(.63 1)"><tspan x="0" y="0">c</tspan></text><text class="cls-23" transform="translate(254.52 354.04) rotate(75.55) scale(.63 1)"><tspan x="0" y="0">t</tspan></text><text class="cls-23" transform="translate(255.34 357.21) rotate(75.55) scale(.63 1)"><tspan x="0" y="0">e</tspan><tspan x="7.01" y="0">d</tspan></text><text class="cls-25" transform="translate(208.18 330.39) rotate(97.5)"><tspan x="0" y="0">h</tspan></text><text class="cls-25" transform="translate(207.34 336.82) rotate(97.5)"><tspan x="0" y="0">o</tspan></text><text class="cls-25" transform="translate(206.54 342.88) rotate(97.5)"><tspan x="0" y="0">p</tspan></text><text class="cls-25" transform="translate(205.72 349.1) rotate(97.5)"><tspan x="0" y="0">e</tspan></text><text class="cls-25" transform="translate(204.96 354.91) rotate(97.5)"><tspan x="0" y="0">f</tspan></text><text class="cls-25" transform="translate(204.45 358.73) rotate(97.49)"><tspan x="0" y="0">u</tspan></text><text class="cls-25" transform="translate(203.61 365.15) rotate(97.5)"><tspan x="0" y="0">l</tspan></text><text class="cls-29" transform="translate(192.62 327.21) rotate(110.16) scale(1.13 1)"><tspan x="0" y="0">i</tspan></text><text class="cls-29" transform="translate(191.55 330.11) rotate(110.16) scale(1.13 1)"><tspan x="0" y="0">m</tspan></text><text class="cls-29" transform="translate(188.17 339.32) rotate(110.16) scale(1.13 1)"><tspan x="0" y="0">p</tspan></text><text class="cls-29" transform="translate(185.98 345.28) rotate(110.16) scale(1.13 1)"><tspan x="0" y="0">o</tspan></text><text class="cls-29" transform="translate(183.84 351.12) rotate(110.16) scale(1.13 1)"><tspan x="0" y="0">r</tspan></text><text class="cls-29" transform="translate(182.28 355.38) rotate(110.16) scale(1.13 1)"><tspan x="0" y="0">t</tspan></text><text class="cls-29" transform="translate(180.78 359.47) rotate(110.16) scale(1.13 1)"><tspan x="0" y="0">a</tspan></text><text class="cls-29" transform="translate(178.69 365.16) rotate(110.16) scale(1.13 1)"><tspan x="0" y="0">n</tspan></text><text class="cls-29" transform="translate(176.43 371.3) rotate(110.16) scale(1.13 1)"><tspan x="0" y="0">t</tspan></text><text class="cls-25" transform="translate(171.28 321.72) rotate(117.91)"><tspan x="0" y="0">f</tspan></text><text class="cls-25" transform="translate(169.49 325.11) rotate(117.91)"><tspan x="0" y="0">a</tspan></text><text class="cls-25" transform="translate(166.7 330.37) rotate(117.91)"><tspan x="0" y="0">i</tspan></text><text class="cls-25" transform="translate(165.27 333.06) rotate(117.91)"><tspan x="0" y="0">t</tspan></text><text class="cls-25" transform="translate(163.26 336.86) rotate(117.91)"><tspan x="0" y="0">h</tspan></text><text class="cls-25" transform="translate(160.22 342.6) rotate(117.91)"><tspan x="0" y="0">f</tspan></text><text class="cls-25" transform="translate(158.42 346) rotate(117.91)"><tspan x="0" y="0">u</tspan></text><text class="cls-25" transform="translate(155.39 351.72) rotate(117.91)"><tspan x="0" y="0">l</tspan></text><text/><text class="cls-29" transform="translate(229.19 326.83) rotate(87.46)"><tspan x="0" y="0">A</tspan></text><text class="cls-29" transform="translate(229.46 332.97) rotate(87.46)"><tspan x="0" y="0">p</tspan></text><text class="cls-29" transform="translate(229.71 338.62) rotate(87.46)"><tspan x="0" y="0">p</tspan></text><text class="cls-29" transform="translate(229.96 344.25) rotate(87.46)"><tspan x="0" y="0">r</tspan></text><text class="cls-29" transform="translate(230.13 348.1) rotate(87.47)"><tspan x="0" y="0">e</tspan></text><text class="cls-29" transform="translate(230.37 353.4) rotate(87.46)"><tspan x="0" y="0">c</tspan></text><text class="cls-29" transform="translate(230.57 357.98) rotate(87.46)"><tspan x="0" y="0">i</tspan></text><text class="cls-29" transform="translate(230.69 360.69) rotate(87.46)"><tspan x="0" y="0">a</tspan></text><text class="cls-29" transform="translate(230.93 366.07) rotate(87.46)"><tspan x="0" y="0">t</tspan></text><text class="cls-29" transform="translate(231.1 369.94) rotate(87.46)"><tspan x="0" y="0">e</tspan></text><text class="cls-29" transform="translate(231.33 375.2) rotate(87.46)"><tspan x="0" y="0">d</tspan></text><line class="cls-33" x1="61.12" y1="232.59" x2="106.34" y2="230.15"/><text class="cls-25" transform="translate(63.58 235.93) rotate(-4.78)"><tspan x="0" y="0">content</tspan></text><text class="cls-25" transform="translate(67.19 263.37) rotate(-14.45)"><tspan x="0" y="0">t</tspan></text><text class="cls-25" transform="translate(71.36 262.29) rotate(-14.45)"><tspan x="0" y="0">h</tspan></text><text class="cls-25" transform="translate(77.63 260.68) rotate(-14.45)"><tspan x="0" y="0">o</tspan></text><text class="cls-25" transform="translate(83.56 259.15) rotate(-14.45)"><tspan x="0" y="0">g</tspan></text><text class="cls-25" transform="translate(89.2 257.7) rotate(-14.45)"><tspan x="0" y="0">h</tspan></text><text class="cls-25" transform="translate(95.49 256.08) rotate(-14.45)"><tspan x="0" y="0">t</tspan></text><text class="cls-25" transform="translate(99.65 255) rotate(-14.45)"><tspan x="0" y="0">f</tspan></text><text class="cls-25" transform="translate(103.37 254.05) rotate(-14.45)"><tspan x="0" y="0">u</tspan></text><text class="cls-25" transform="translate(109.65 252.43) rotate(-14.45)"><tspan x="0" y="0">l</tspan></text><text class="cls-29" transform="translate(78.54 287.85) rotate(-26.94)"><tspan x="0" y="0">i</tspan></text><text class="cls-29" transform="translate(80.98 286.6) rotate(-26.95)"><tspan x="0" y="0">n</tspan></text><text class="cls-29" transform="translate(86.17 283.97) rotate(-26.94)"><tspan x="0" y="0">t</tspan></text><text class="cls-29" transform="translate(89.62 282.21) rotate(-26.94)"><tspan x="0" y="0">i</tspan></text><text class="cls-29" transform="translate(92.07 280.96) rotate(-26.94)"><tspan x="0" y="0">m</tspan></text><text class="cls-29" transform="translate(99.85 277.01) rotate(-26.95)"><tspan x="0" y="0">a</tspan></text><text class="cls-29" transform="translate(104.65 274.57) rotate(-26.95)"><tspan x="0" y="0">t</tspan></text><text class="cls-29" transform="translate(108.1 272.82) rotate(-26.94)"><tspan x="0" y="0">e</tspan></text><text class="cls-25" transform="translate(97.16 305.88) rotate(-34.58)"><tspan x="0" y="0">l</tspan></text><text class="cls-25" transform="translate(99.67 304.16) rotate(-34.58)"><tspan x="0" y="0">o</tspan></text><text class="cls-25" transform="translate(104.56 300.78) rotate(-34.58)"><tspan x="0" y="0">v</tspan></text><text class="cls-25" transform="translate(109.21 297.58) rotate(-34.58)"><tspan x="0" y="0">i</tspan></text><text class="cls-25" transform="translate(111.72 295.84) rotate(-34.58)"><tspan x="0" y="0">n</tspan></text><text class="cls-25" transform="translate(117.06 292.17) rotate(-34.58)"><tspan x="0" y="0">g</tspan></text><line class="cls-33" x1="108.78" y1="333.11" x2="139.73" y2="302.5"/><line class="cls-33" x1="128.6" y1="351.54" x2="155.39" y2="313.98"/><text class="cls-25" transform="translate(112.54 332.38) rotate(-47.69)"><tspan x="0" y="0">t</tspan></text><text class="cls-25" transform="translate(115.43 329.2) rotate(-47.69)"><tspan x="0" y="0">r</tspan></text><text class="cls-25" transform="translate(118.45 325.89) rotate(-47.69)"><tspan x="0" y="0">u</tspan></text><text class="cls-25" transform="translate(122.82 321.09) rotate(-47.69)"><tspan x="0" y="0">s</tspan></text><text class="cls-25" transform="translate(126.11 317.47) rotate(-47.69)"><tspan x="0" y="0">t</tspan></text><text class="cls-25" transform="translate(129.01 314.28) rotate(-47.69)"><tspan x="0" y="0">i</tspan></text><text class="cls-25" transform="translate(131.05 312.04) rotate(-47.7)"><tspan x="0" y="0">n</tspan></text><text class="cls-25" transform="translate(135.42 307.24) rotate(-47.7)"><tspan x="0" y="0">g</tspan></text><text class="cls-25" transform="translate(130.5 351.5) rotate(-52.45)"><tspan x="0" y="0">n</tspan></text><text class="cls-25" transform="translate(134.44 346.37) rotate(-52.45)"><tspan x="0" y="0">u</tspan></text><text class="cls-25" transform="translate(138.4 341.23) rotate(-52.45)"><tspan x="0" y="0">t</tspan></text><text class="cls-25" transform="translate(141.02 337.82) rotate(-52.45)"><tspan x="0" y="0">u</tspan></text><text class="cls-25" transform="translate(144.96 332.68) rotate(-52.45)"><tspan x="0" y="0">r</tspan></text><text class="cls-25" transform="translate(147.7 329.12) rotate(-52.45)"><tspan x="0" y="0">i</tspan></text><text class="cls-25" transform="translate(149.56 326.7) rotate(-52.45)"><tspan x="0" y="0">n</tspan></text><text class="cls-25" transform="translate(153.51 321.56) rotate(-52.45)"><tspan x="0" y="0">g</tspan></text><text class="cls-25" transform="translate(66.52 208.31) rotate(8.51)"><tspan x="0" y="0">s</tspan></text><text class="cls-25" transform="translate(71.36 209.03) rotate(8.51)"><tspan x="0" y="0">l</tspan></text><text class="cls-25" transform="translate(74.36 209.48) rotate(8.51)"><tspan x="0" y="0">e</tspan></text><text class="cls-25" transform="translate(80.16 210.35) rotate(8.51)"><tspan x="0" y="0">e</tspan></text><text class="cls-25" transform="translate(85.96 211.22) rotate(8.51)"><tspan x="0" y="0">p</tspan></text><text class="cls-25" transform="translate(91.97 212.12) rotate(8.51)"><tspan x="0" y="0">y</tspan></text><line class="cls-33" x1="63.91" y1="179.72" x2="107.73" y2="193.63"/><text class="cls-25" transform="translate(76.7 156.86) rotate(20.45)"><tspan x="0" y="0">l</tspan></text><text class="cls-25" transform="translate(79.53 157.91) rotate(20.45)"><tspan x="0" y="0">o</tspan></text><text class="cls-25" transform="translate(85.28 160.06) rotate(20.45)"><tspan x="0" y="0">n</tspan></text><text class="cls-25" transform="translate(91.36 162.32) rotate(20.45)"><tspan x="0" y="0">e</tspan></text><text class="cls-25" transform="translate(96.84 164.37) rotate(20.45)"><tspan x="0" y="0">l</tspan></text><text class="cls-25" transform="translate(99.7 165.43) rotate(20.45)"><tspan x="0" y="0">y</tspan></text><text class="cls-25" transform="translate(69.12 183.47) rotate(14.74)"><tspan x="0" y="0">b</tspan></text><text class="cls-25" transform="translate(75.18 185.06) rotate(14.74)"><tspan x="0" y="0">o</tspan></text><text class="cls-25" transform="translate(81.11 186.62) rotate(14.74)"><tspan x="0" y="0">r</tspan></text><text class="cls-25" transform="translate(85.25 187.71) rotate(14.74)"><tspan x="0" y="0">e</tspan></text><text class="cls-25" transform="translate(90.92 189.21) rotate(14.74)"><tspan x="0" y="0">d</tspan></text><text class="cls-25" transform="translate(83.37 128.84) rotate(34.71)"><tspan x="0" y="0">d</tspan></text><text class="cls-25" transform="translate(88.53 132.41) rotate(34.72)"><tspan x="0" y="0">e</tspan></text><text class="cls-25" transform="translate(93.36 135.76) rotate(34.72)"><tspan x="0" y="0">p</tspan></text><text class="cls-25" transform="translate(98.51 139.33) rotate(34.72)"><tspan x="0" y="0">r</tspan></text><text class="cls-25" transform="translate(102.05 141.78) rotate(34.72)"><tspan x="0" y="0">e</tspan></text><text class="cls-25" transform="translate(106.85 145.11) rotate(34.72)"><tspan x="0" y="0">s</tspan></text><text class="cls-25" transform="translate(110.9 147.91) rotate(34.72)"><tspan x="0" y="0">s</tspan></text><text class="cls-25" transform="translate(114.92 150.7) rotate(34.72)"><tspan x="0" y="0">e</tspan></text><text class="cls-25" transform="translate(119.75 154.05) rotate(34.72)"><tspan x="0" y="0">d</tspan></text><text class="cls-25" transform="translate(103.87 112.89) rotate(41)"><tspan x="0" y="0">a</tspan></text><text class="cls-25" transform="translate(108.38 116.8) rotate(41)"><tspan x="0" y="0">s</tspan></text><text class="cls-25" transform="translate(112.09 120.03) rotate(41)"><tspan x="0" y="0">h</tspan></text><text class="cls-25" transform="translate(116.96 124.27) rotate(41)"><tspan x="0" y="0">a</tspan></text><text class="cls-25" transform="translate(121.48 128.2) rotate(41)"><tspan x="0" y="0">m</tspan></text><text class="cls-25" transform="translate(128.8 134.55) rotate(41)"><tspan x="0" y="0">e</tspan></text><text class="cls-25" transform="translate(133.21 138.39) rotate(41)"><tspan x="0" y="0">d</tspan></text><text class="cls-25" transform="translate(126.21 92.44) rotate(52.22)"><tspan x="0" y="0">g</tspan></text><text class="cls-25" transform="translate(129.78 97.04) rotate(52.22)"><tspan x="0" y="0">u</tspan></text><text class="cls-25" transform="translate(133.76 102.17) rotate(52.22)"><tspan x="0" y="0">i</tspan></text><text class="cls-25" transform="translate(135.62 104.58) rotate(52.23)"><tspan x="0" y="0">l</tspan></text><text class="cls-25" transform="translate(137.48 106.97) rotate(52.22)"><tspan x="0" y="0">t</tspan></text><text class="cls-25" transform="translate(140.1 110.36) rotate(52.23)"><tspan x="0" y="0">y</tspan></text><g><text class="cls-25" transform="translate(152.5 78.2) rotate(63.73)"><tspan x="0" y="0">h</tspan></text><text class="cls-25" transform="translate(155.37 84.01) rotate(63.73)"><tspan x="0" y="0">u</tspan></text><text class="cls-25" transform="translate(158.24 89.83) rotate(63.73)"><tspan x="0" y="0">r</tspan></text><text class="cls-25" transform="translate(160.22 93.85) rotate(63.73)"><tspan x="0" y="0">t</tspan></text></g><g><text class="cls-25" transform="translate(177.78 69.25) rotate(70.75)"><tspan x="0" y="0">h</tspan></text><text class="cls-25" transform="translate(179.91 75.36) rotate(70.74)"><tspan x="0" y="0">o</tspan></text><text class="cls-25" transform="translate(181.94 81.15) rotate(70.74)"><tspan x="0" y="0">s</tspan></text><text class="cls-25" transform="translate(183.55 85.78) rotate(70.74)"><tspan x="0" y="0">t</tspan></text><text class="cls-25" transform="translate(184.97 89.85) rotate(70.74)"><tspan x="0" y="0">i</tspan></text><text class="cls-25" transform="translate(185.97 92.71) rotate(70.74)"><tspan x="0" y="0">l</tspan></text><text class="cls-25" transform="translate(186.98 95.59) rotate(70.74)"><tspan x="0" y="0">e</tspan></text></g><g><text class="cls-25" transform="translate(206.84 63.69) rotate(83.32)"><tspan x="0" y="0">a</tspan></text><text class="cls-25" transform="translate(207.53 69.63) rotate(83.33)"><tspan x="0" y="0">n</tspan></text><text class="cls-25" transform="translate(208.29 76.07) rotate(83.32)"><tspan x="0" y="0">g</tspan></text><text class="cls-25" transform="translate(208.96 81.83) rotate(83.33)"><tspan x="0" y="0">r</tspan></text><text class="cls-25" transform="translate(209.48 86.3) rotate(83.32)"><tspan x="0" y="0">y</tspan></text></g><g><text class="cls-25" transform="translate(233.56 68.77) rotate(92.7)"><tspan x="0" y="0">r</tspan></text><text class="cls-25" transform="translate(233.36 73.06) rotate(92.69)"><tspan x="0" y="0">a</tspan></text><text class="cls-25" transform="translate(233.08 79.01) rotate(92.69)"><tspan x="0" y="0">g</tspan></text><text class="cls-25" transform="translate(232.81 84.82) rotate(92.69)"><tspan x="0" y="0">e</tspan></text></g><g><text class="cls-25" transform="translate(256.84 66.98) rotate(101.02)"><tspan x="0" y="0">h</tspan></text><text class="cls-25" transform="translate(255.6 73.35) rotate(101.02)"><tspan x="0" y="0">a</tspan></text><text class="cls-25" transform="translate(254.46 79.2) rotate(101.02)"><tspan x="0" y="0">t</tspan></text><text class="cls-25" transform="translate(253.63 83.45) rotate(101.02)"><tspan x="0" y="0">e</tspan></text><text class="cls-25" transform="translate(252.52 89.19) rotate(101.02)"><tspan x="0" y="0">f</tspan></text><text class="cls-25" transform="translate(251.78 92.96) rotate(101.02)"><tspan x="0" y="0">u</tspan></text><text class="cls-25" transform="translate(250.55 99.31) rotate(101.02)"><tspan x="0" y="0">l</tspan></text></g><g><text class="cls-25" transform="translate(284.16 75.07) rotate(118.47)"><tspan x="0" y="0">c</tspan></text><text class="cls-25" transform="translate(281.72 79.57) rotate(118.48)"><tspan x="0" y="0">r</tspan></text><text class="cls-25" transform="translate(279.58 83.51) rotate(118.47)"><tspan x="0" y="0">i</tspan></text><text class="cls-25" transform="translate(278.14 86.17) rotate(118.47)"><tspan x="0" y="0">t</tspan></text><text class="cls-25" transform="translate(276.08 89.96) rotate(118.47)"><tspan x="0" y="0">i</tspan></text><text class="cls-25" transform="translate(274.64 92.63) rotate(118.47)"><tspan x="0" y="0">c</tspan></text><text class="cls-25" transform="translate(272.2 97.12) rotate(118.48)"><tspan x="0" y="0">a</tspan></text><text class="cls-25" transform="translate(269.35 102.37) rotate(118.47)"><tspan x="0" y="0">l</tspan></text></g><text class="cls-29" transform="translate(320.3 271.23) rotate(28.68) scale(1.2 1)"><tspan x="0" y="0">e</tspan></text><text class="cls-29" transform="translate(325.88 274.29) rotate(28.68) scale(1.2 1)"><tspan x="0" y="0">n</tspan></text><text class="cls-29" transform="translate(332.05 277.66) rotate(28.68) scale(1.2 1)"><tspan x="0" y="0">e</tspan></text><text class="cls-29" transform="translate(337.62 280.71) rotate(28.68) scale(1.2 1)"><tspan x="0" y="0">r</tspan></text><text class="cls-29" transform="translate(341.79 282.99) rotate(28.68) scale(1.2 1)"><tspan x="0" y="0">g</tspan></text><text class="cls-29" transform="translate(347.32 286.01) rotate(28.68) scale(1.2 1)"><tspan x="0" y="0">t</tspan></text><text class="cls-29" transform="translate(351.42 288.26) rotate(28.68) scale(1.2 1)"><tspan x="0" y="0">i</tspan></text><text class="cls-29" transform="translate(354.29 289.83) rotate(28.68) scale(1.2 1)"><tspan x="0" y="0">c</tspan></text></g></g><g id="OutterCircle"><path class="cls-5" d="M278.58,375.73l18.47,50.76c12.1-4.5,23.69-10.03,34.67-16.49l-26.96-46.69c-8.3,4.86-17.06,9.03-26.19,12.42Z"/><path class="cls-17" d="M55.57,249.28l-51.86,9.14c2.24,12.76,5.57,25.15,9.9,37.06l49.74-18.11c-3.38-9.02-6-18.41-7.79-28.09Z"/><path class="cls-5" d="M250.59,383.42l9.39,53.24c12.78-2.32,25.16-5.75,37.07-10.17l-18.47-50.76c-8.99,3.34-18.34,5.93-27.98,7.69Z"/><path class="cls-5" d="M221.67,386.14v54.05c13.07-.07,25.88-1.28,38.31-3.54l-9.39-53.24c-9.39,1.72-19.06,2.65-28.93,2.73Z"/><path class="cls-5" d="M137.28,364.19l-26.89,46.58c11.27,6.52,23.18,12.07,35.6,16.53l18.45-50.68c-9.47-3.35-18.55-7.52-27.16-12.43Z"/><path class="cls-5" d="M220.27,386.16c-9.41,0-18.63-.79-27.61-2.28l-9.38,53.2c12.07,2.05,24.47,3.13,37.12,3.13,.42,0,.85-.01,1.27-.02v-54.05c-.47,0-.93,.02-1.4,.02Z"/><path class="cls-17" d="M63.36,277.37l-49.74,18.11c4.41,12.12,9.86,23.74,16.23,34.75l46.06-26.59c-4.91-8.32-9.12-17.1-12.55-26.26Z"/><path class="cls-17" d="M75.91,303.64l-46.06,26.59c6.43,11.12,13.82,21.61,22.03,31.39l40.91-34.33c-6.28-7.36-11.93-15.28-16.88-23.66Z"/><path class="cls-17" d="M113.44,347.68l-34.45,41.06c9.78,8.21,20.27,15.6,31.39,22.03l26.89-46.58c-8.43-4.82-16.4-10.35-23.83-16.51Z"/><path class="cls-17" d="M92.78,327.3l-40.91,34.33c8.24,9.8,17.31,18.88,27.12,27.12l34.45-41.06c-7.46-6.19-14.37-13.01-20.66-20.38Z"/><path class="cls-5" d="M164.43,376.62l-18.45,50.68c11.98,4.31,24.45,7.6,37.29,9.78l9.38-53.2c-9.72-1.61-19.15-4.06-28.23-7.27Z"/><path class="cls-13" d="M388.05,220.43c-.12,9.91-1.09,19.62-2.86,29.05l52.12,9.19c2.2-12.42,3.36-25.2,3.39-38.24h-52.65Z"/><path class="cls-13" d="M377.03,277.77l49.98,18.19c4.37-11.9,7.73-24.29,9.99-37.06l-52.12-9.19c-1.81,9.67-4.46,19.05-7.86,28.05Z"/><path class="cls-13" d="M347.53,327.56l41.06,34.45c8.23-9.76,15.64-20.24,22.1-31.34l-46.25-26.7c-4.96,8.36-10.62,16.25-16.9,23.59Z"/><path class="cls-13" d="M328.4,346.57l34.56,41.19c9.23-7.86,17.8-16.48,25.63-25.74l-41.06-34.45c-5.86,6.84-12.26,13.19-19.13,19.01Z"/><path class="cls-13" d="M364.43,303.97l46.25,26.7c6.4-11,11.88-22.61,16.32-34.72l-49.98-18.19c-3.45,9.14-7.67,17.9-12.6,26.2Z"/><path class="cls-13" d="M304.77,363.3l26.96,46.69c11.07-6.51,21.52-13.95,31.24-22.23l-34.56-41.19c-7.36,6.23-15.26,11.83-23.63,16.73Z"/><path class="cls-8" d="M328.77,91.06l33.04-39.37c-9.78-8.21-20.27-15.6-31.39-22.03l-25.62,44.37c8.5,4.98,16.52,10.68,23.97,17.03Z"/><path class="cls-8" d="M349.4,111.97l39.52-33.16c-8.24-9.8-17.31-18.88-27.12-27.12l-33.04,39.37c7.47,6.36,14.38,13.35,20.63,20.91Z"/><path class="cls-8" d="M366.04,136.13l44.91-25.93c-6.43-11.12-13.82-21.61-22.03-31.39l-39.52,33.16c6.22,7.53,11.8,15.61,16.65,24.15Z"/><path class="cls-12" d="M305.07,74.41l25.62-44.37c-10.76-6.23-22.09-11.57-33.9-15.92l-17.48,48.03c8.98,3.37,17.59,7.48,25.77,12.27Z"/><path class="cls-12" d="M251.11,54.33l8.86-50.24c-12.35-2.23-25.05-3.41-38.03-3.49V51.55c9.95,.08,19.7,1.03,29.17,2.77Z"/><path class="cls-3" d="M62.47,163.55l-48.75-17.74c-4.3,11.91-7.61,24.29-9.81,37.05l51.33,9.05c1.59-9.76,4.02-19.24,7.22-28.36Z"/><path class="cls-3" d="M74.58,136.84l-44.72-25.82c-6.35,11.03-11.76,22.66-16.14,34.79l48.75,17.74c3.27-9.31,7.33-18.24,12.11-26.71Z"/><path class="cls-12" d="M220.72,51.45c.47,0,.93,.01,1.4,.02V.52c-.42,0-.84-.02-1.27-.02-12.55,0-24.85,1.07-36.83,3.09l8.85,50.18c9.06-1.52,18.36-2.32,27.85-2.32Z"/><path class="cls-3" d="M91.2,112.61l-39.37-33.04c-8.19,9.8-15.56,20.31-21.96,31.45l44.72,25.82c4.84-8.57,10.4-16.68,16.62-24.23Z"/><path class="cls-3" d="M53.05,219.03c0-9.24,.76-18.29,2.2-27.12L3.91,182.86c-2.12,12.26-3.23,24.86-3.23,37.72H53.07c0-.52-.02-1.03-.02-1.55Z"/><path class="cls-3" d="M113.36,90.33l-32.93-39.24c-10.38,8.6-19.96,18.14-28.6,28.49l39.37,33.04c6.67-8.1,14.1-15.56,22.16-22.28Z"/><path class="cls-12" d="M164.26,61.24l-17.44-47.93c-12.14,4.33-23.78,9.68-34.83,15.97l25.55,44.25c8.47-4.84,17.41-8.96,26.73-12.29Z"/><path class="cls-12" d="M192.7,53.85L183.85,3.67c-12.75,2.15-25.13,5.39-37.04,9.64l17.44,47.93c9.14-3.26,18.65-5.75,28.44-7.39Z"/><path class="cls-12" d="M279.31,62.14l17.48-48.03c-11.83-4.36-24.13-7.74-36.82-10.02l-8.86,50.24c9.72,1.79,19.14,4.42,28.19,7.82Z"/><path class="cls-3" d="M137.53,73.53l-25.55-44.25c-11.17,6.36-21.72,13.66-31.56,21.81l32.93,39.24c7.53-6.28,15.61-11.91,24.17-16.8Z"/><path class="cls-17" d="M52.89,220.36H.5c.03,12.88,1.16,25.49,3.31,37.76l51.86-9.14c-1.72-9.29-2.66-18.85-2.78-28.61Z"/><path class="cls-8" d="M378.37,163.14l48.98-17.83c-4.41-12.12-9.86-23.74-16.23-34.75l-44.91,25.93c4.8,8.45,8.87,17.36,12.16,26.65Z"/><path class="cls-8" d="M387.94,218.63c0,.52-.01,1.03-.02,1.55h52.65c0-13.03-1.14-25.8-3.31-38.21l-51.59,9.1c1.48,8.97,2.27,18.17,2.27,27.56Z"/><path class="cls-8" d="M385.67,191.47l51.59-9.1c-2.24-12.76-5.57-25.15-9.9-37.06l-48.98,17.83c3.22,9.11,5.68,18.57,7.29,28.33Z"/><g id="TextOL"><text class="cls-24" transform="translate(197.01 6.32) rotate(83.66) scale(.69 1)"><tspan x="0" y="0">F</tspan></text><text class="cls-24" transform="translate(197.46 10.37) rotate(83.66) scale(.69 1)"><tspan x="0" y="0">r</tspan></text><text class="cls-24" transform="translate(197.84 13.74) rotate(83.66) scale(.69 1)"><tspan x="0" y="0">u</tspan></text><text class="cls-24" transform="translate(198.38 18.59) rotate(83.66) scale(.69 1)"><tspan x="0" y="0">s</tspan></text><text class="cls-24" transform="translate(198.79 22.26) rotate(83.66) scale(.69 1)"><tspan x="0" y="0">t</tspan></text><text class="cls-24" transform="translate(199.14 25.49) rotate(83.66) scale(.69 1)"><tspan x="0" y="0">r</tspan></text><text class="cls-24" transform="translate(199.5 28.69) rotate(83.66) scale(.69 1)"><tspan x="0" y="0">a</tspan></text><text class="cls-24" transform="translate(200 33.17) rotate(83.66) scale(.69 1)"><tspan x="0" y="0">t</tspan></text><text class="cls-24" transform="translate(200.36 36.41) rotate(83.66) scale(.69 1)"><tspan x="0" y="0">e</tspan></text><text class="cls-24" transform="translate(200.85 40.81) rotate(83.66) scale(.69 1)"><tspan x="0" y="0">d</tspan></text><text class="cls-29" transform="translate(163.28 15.04) rotate(74.01)"><tspan x="0" y="0">s</tspan></text><text class="cls-29" transform="translate(164.49 19.27) rotate(74.01)"><tspan x="0" y="0">h</tspan></text><text class="cls-29" transform="translate(166.1 24.88) rotate(74.01)"><tspan x="0" y="0">e</tspan></text><text class="cls-29" transform="translate(167.55 29.94) rotate(74)"><tspan x="0" y="0">l</tspan></text><text class="cls-29" transform="translate(168.3 32.57) rotate(74)"><tspan x="0" y="0">fi</tspan></text><text class="cls-29" transform="translate(170.01 38.52) rotate(74.01)"><tspan x="0" y="0">s</tspan></text><text class="cls-29" transform="translate(171.23 42.77) rotate(74)"><tspan x="0" y="0">h</tspan></text><text class="cls-29" transform="translate(128.23 28.18) rotate(63.29)"><tspan x="0" y="0">j</tspan></text><text class="cls-29" transform="translate(129.47 30.64) rotate(63.29)"><tspan x="0" y="0">e</tspan></text><text class="cls-29" transform="translate(131.83 35.33) rotate(63.29)"><tspan x="0" y="0">a</tspan></text><text class="cls-29" transform="translate(134.25 40.13) rotate(63.29)"><tspan x="0" y="0">l</tspan></text><text class="cls-29" transform="translate(135.48 42.58) rotate(63.29)"><tspan x="0" y="0">o</tspan></text><text class="cls-29" transform="translate(137.96 47.51) rotate(63.29)"><tspan x="0" y="0">u</tspan></text><text class="cls-29" transform="translate(140.58 52.72) rotate(63.29)"><tspan x="0" y="0">s</tspan></text><text class="cls-29" transform="translate(236.61 7.87) rotate(93.26)"><tspan x="0" y="0">f</tspan></text><text class="cls-29" transform="translate(236.42 11.31) rotate(93.26)"><tspan x="0" y="0">u</tspan></text><text class="cls-29" transform="translate(236.09 17.13) rotate(93.26)"><tspan x="0" y="0">r</tspan></text><text class="cls-29" transform="translate(235.86 21.17) rotate(93.26)"><tspan x="0" y="0">i</tspan></text><text class="cls-29" transform="translate(235.7 23.9) rotate(93.26)"><tspan x="0" y="0">o</tspan></text><text class="cls-29" transform="translate(235.39 29.4) rotate(93.26)"><tspan x="0" y="0">u</tspan></text><text class="cls-29" transform="translate(235.06 35.24) rotate(93.26)"><tspan x="0" y="0">s</tspan></text><text class="cls-29" transform="translate(273.01 12.53) rotate(104.46)"><tspan x="0" y="0">i</tspan></text><text class="cls-29" transform="translate(272.32 15.17) rotate(104.46)"><tspan x="0" y="0">r</tspan></text><text class="cls-29" transform="translate(271.31 19.1) rotate(104.46)"><tspan x="0" y="0">r</tspan></text><text class="cls-29" transform="translate(270.3 23.02) rotate(104.46)"><tspan x="0" y="0">i</tspan></text><text class="cls-29" transform="translate(269.62 25.66) rotate(104.46)"><tspan x="0" y="0">t</tspan></text><text class="cls-29" transform="translate(268.65 29.42) rotate(104.46)"><tspan x="0" y="0">a</tspan></text><text class="cls-29" transform="translate(267.31 34.61) rotate(104.46)"><tspan x="0" y="0">t</tspan></text><text class="cls-29" transform="translate(266.34 38.37) rotate(104.46)"><tspan x="0" y="0">e</tspan></text><text class="cls-29" transform="translate(265.03 43.47) rotate(104.46)"><tspan x="0" y="0">d</tspan></text><text class="cls-29" transform="translate(309.65 25.58) rotate(115.06)"><tspan x="0" y="0">s</tspan></text><text class="cls-29" transform="translate(307.78 29.58) rotate(115.06)"><tspan x="0" y="0">k</tspan></text><text class="cls-29" transform="translate(305.44 34.59) rotate(115.06)"><tspan x="0" y="0">e</tspan></text><text class="cls-29" transform="translate(303.2 39.37) rotate(115.06)"><tspan x="0" y="0">p</tspan></text><text class="cls-29" transform="translate(300.82 44.46) rotate(115.06)"><tspan x="0" y="0">t</tspan></text><text class="cls-29" transform="translate(299.18 47.97) rotate(115.06)"><tspan x="0" y="0">i</tspan></text><text class="cls-29" transform="translate(298.02 50.45) rotate(115.06)"><tspan x="0" y="0">c</tspan></text><text class="cls-29" transform="translate(296.07 54.63) rotate(115.06)"><tspan x="0" y="0">a</tspan></text><text class="cls-29" transform="translate(293.79 59.5) rotate(115.06)"><tspan x="0" y="0">l</tspan></text><text class="cls-20" transform="translate(324.89 77.86) rotate(-56.58)"><tspan x="0" y="0">b</tspan></text><text class="cls-20" transform="translate(327.3 74.21) rotate(-56.58)"><tspan x="0" y="0">e</tspan></text><text class="cls-20" transform="translate(329.5 70.88) rotate(-56.58)"><tspan x="0" y="0">w</tspan></text><text class="cls-20" transform="translate(332.81 65.86) rotate(-56.58)"><tspan x="0" y="0">i</tspan></text><text class="cls-20" transform="translate(333.99 64.08) rotate(-56.58)"><tspan x="0" y="0">l</tspan></text><text class="cls-20" transform="translate(335.17 62.29) rotate(-56.58)"><tspan x="0" y="0">d</tspan></text><text class="cls-20" transform="translate(337.57 58.64) rotate(-56.58)"><tspan x="0" y="0">e</tspan></text><text class="cls-20" transform="translate(339.84 55.21) rotate(-56.58)"><tspan x="0" y="0">r</tspan></text><text class="cls-20" transform="translate(341.49 52.71) rotate(-56.58)"><tspan x="0" y="0">e</tspan></text><text class="cls-20" transform="translate(343.75 49.28) rotate(-56.58)"><tspan x="0" y="0">d</tspan></text><text class="cls-20" transform="translate(344.44 96.31) rotate(-43.3)"><tspan x="0" y="0">d</tspan></text><text class="cls-20" transform="translate(347.64 93.3) rotate(-43.3)"><tspan x="0" y="0">i</tspan></text><text class="cls-20" transform="translate(349.18 91.84) rotate(-43.3)"><tspan x="0" y="0">s</tspan></text><text class="cls-20" transform="translate(351.68 89.49) rotate(-43.3)"><tspan x="0" y="0">c</tspan></text><text class="cls-20" transform="translate(354.28 87.04) rotate(-43.3)"><tspan x="0" y="0">o</tspan></text><text class="cls-20" transform="translate(357.42 84.08) rotate(-43.3)"><tspan x="0" y="0">u</tspan></text><text class="cls-20" transform="translate(360.72 80.97) rotate(-43.3)"><tspan x="0" y="0">r</tspan></text><text class="cls-20" transform="translate(362.91 78.91) rotate(-43.3)"><tspan x="0" y="0">a</tspan></text><text class="cls-20" transform="translate(365.94 76.05) rotate(-43.3)"><tspan x="0" y="0">g</tspan></text><text class="cls-20" transform="translate(368.91 73.25) rotate(-43.3)"><tspan x="0" y="0">e</tspan></text><text class="cls-20" transform="translate(371.9 70.43) rotate(-43.3)"><tspan x="0" y="0">d</tspan></text><line class="cls-33" x1="393.56" y1="90.85" x2="359.12" y2="115.63"/><text class="cls-20" transform="translate(362.75 120.39) rotate(-34.93)"><tspan x="0" y="0">i</tspan></text><text class="cls-20" transform="translate(364.52 119.15) rotate(-34.93)"><tspan x="0" y="0">n</tspan></text><text class="cls-20" transform="translate(368.24 116.55) rotate(-34.93)"><tspan x="0" y="0">s</tspan></text><text class="cls-20" transform="translate(371.04 114.6) rotate(-34.93)"><tspan x="0" y="0">i</tspan></text><text class="cls-20" transform="translate(372.8 113.37) rotate(-34.93)"><tspan x="0" y="0">g</tspan></text><text class="cls-20" transform="translate(376.14 111.04) rotate(-34.93)"><tspan x="0" y="0">n</tspan></text><text class="cls-20" transform="translate(379.85 108.44) rotate(-34.93)"><tspan x="0" y="0">i</tspan><tspan x="2.14" y="0">fi</tspan></text><text class="cls-20" transform="translate(385.56 104.46) rotate(-34.93)"><tspan x="0" y="0">g</tspan></text><text class="cls-20" transform="translate(388.89 102.13) rotate(-34.93)"><tspan x="0" y="0">a</tspan></text><text class="cls-20" transform="translate(392.32 99.74) rotate(-34.93)"><tspan x="0" y="0">n</tspan></text><text class="cls-20" transform="translate(396.04 97.14) rotate(-34.93)"><tspan x="0" y="0">t</tspan></text><g><text class="cls-25" transform="translate(382.12 148.3) rotate(-24.33) scale(1.2 1)"><tspan x="0" y="0">w</tspan></text><text class="cls-25" transform="translate(391.37 144.12) rotate(-24.33) scale(1.2 1)"><tspan x="0" y="0">e</tspan></text><text class="cls-25" transform="translate(397.79 141.21) rotate(-24.33) scale(1.2 1)"><tspan x="0" y="0">a</tspan></text><text class="cls-25" transform="translate(404.36 138.24) rotate(-24.33) scale(1.2 1)"><tspan x="0" y="0">k</tspan></text></g><g><text class="cls-29" transform="translate(389.29 176.96) rotate(-15.22) scale(1.2 1)"><tspan x="0" y="0">f</tspan></text><text class="cls-29" transform="translate(393.29 175.87) rotate(-15.22) scale(1.2 1)"><tspan x="0" y="0">o</tspan></text><text class="cls-29" transform="translate(399.71 174.13) rotate(-15.22) scale(1.2 1)"><tspan x="0" y="0">o</tspan></text><text class="cls-29" transform="translate(406.12 172.38) rotate(-15.22) scale(1.2 1)"><tspan x="0" y="0">l</tspan></text><text class="cls-29" transform="translate(409.27 171.53) rotate(-15.22) scale(1.2 1)"><tspan x="0" y="0">i</tspan></text><text class="cls-29" transform="translate(412.47 170.65) rotate(-15.22) scale(1.2 1)"><tspan x="0" y="0">s</tspan></text><text class="cls-29" transform="translate(417.59 169.26) rotate(-15.22) scale(1.2 1)"><tspan x="0" y="0">h</tspan></text></g><g><text class="cls-22" transform="translate(391.38 207.81) rotate(-5.64) scale(1.2 1)"><tspan x="0" y="0">e</tspan></text><text class="cls-22" transform="translate(395.6 207.39) rotate(-5.64) scale(1.2 1)"><tspan x="0" y="0">m</tspan></text><text class="cls-22" transform="translate(402.56 206.7) rotate(-5.64) scale(1.2 1)"><tspan x="0" y="0">b</tspan></text><text class="cls-22" transform="translate(407.06 206.26) rotate(-5.64) scale(1.2 1)"><tspan x="0" y="0">a</tspan></text><text class="cls-22" transform="translate(411.36 205.84) rotate(-5.64) scale(1.2 1)"><tspan x="0" y="0">r</tspan></text><text class="cls-22" transform="translate(414.58 205.52) rotate(-5.64) scale(1.2 1)"><tspan x="0" y="0">r</tspan></text><text class="cls-22" transform="translate(417.67 205.21) rotate(-5.64) scale(1.2 1)"><tspan x="0" y="0">a</tspan></text><text class="cls-22" transform="translate(421.98 204.79) rotate(-5.64) scale(1.2 1)"><tspan x="0" y="0">s</tspan></text><text class="cls-22" transform="translate(425.49 204.44) rotate(-5.64) scale(1.2 1)"><tspan x="0" y="0">s</tspan></text><text class="cls-22" transform="translate(429.04 204.09) rotate(-5.64) scale(1.2 1)"><tspan x="0" y="0">e</tspan></text><text class="cls-22" transform="translate(433.25 203.68) rotate(-5.64) scale(1.2 1)"><tspan x="0" y="0">d</tspan></text></g><g><text class="cls-26" transform="translate(394.09 240.49) rotate(7.12) scale(1.2 1)"><tspan x="0" y="0">d</tspan></text><text class="cls-26" transform="translate(400.07 241.24) rotate(7.12) scale(1.2 1)"><tspan x="0" y="0">a</tspan></text><text class="cls-26" transform="translate(405.77 241.95) rotate(7.12) scale(1.2 1)"><tspan x="0" y="0">r</tspan></text><text class="cls-26" transform="translate(410.09 242.49) rotate(7.13) scale(1.2 1)"><tspan x="0" y="0">i</tspan></text><text class="cls-26" transform="translate(412.99 242.85) rotate(7.12) scale(1.2 1)"><tspan x="0" y="0">n</tspan></text><text class="cls-26" transform="translate(419.17 243.63) rotate(7.12) scale(1.2 1)"><tspan x="0" y="0">g</tspan></text></g><g><text class="cls-26" transform="translate(383.21 268.61) rotate(17.19) scale(1.2 1)"><tspan x="0" y="0">f</tspan></text><text class="cls-26" transform="translate(386.75 269.71) rotate(17.19) scale(1.2 1)"><tspan x="0" y="0">a</tspan></text><text class="cls-26" transform="translate(392.24 271.4) rotate(17.19) scale(1.2 1)"><tspan x="0" y="0">c</tspan></text><text class="cls-26" transform="translate(396.93 272.86) rotate(17.19) scale(1.2 1)"><tspan x="0" y="0">i</tspan></text><text class="cls-26" transform="translate(399.73 273.72) rotate(17.19) scale(1.2 1)"><tspan x="0" y="0">n</tspan></text><text class="cls-26" transform="translate(405.7 275.57) rotate(17.19) scale(1.2 1)"><tspan x="0" y="0">a</tspan></text><text class="cls-26" transform="translate(411.19 277.27) rotate(17.19) scale(1.2 1)"><tspan x="0" y="0">t</tspan></text><text class="cls-26" transform="translate(415.16 278.49) rotate(17.19) scale(1.2 1)"><tspan x="0" y="0">i</tspan></text><text class="cls-26" transform="translate(417.97 279.36) rotate(17.19) scale(1.2 1)"><tspan x="0" y="0">n</tspan></text><text class="cls-26" transform="translate(423.93 281.21) rotate(17.19) scale(1.2 1)"><tspan x="0" y="0">g</tspan></text><text class="cls-26" transform="translate(429.27 282.86) rotate(17.19) scale(1.2 1)"><tspan x="0" y="0"> </tspan></text></g><g><text class="cls-20" transform="translate(372.99 295.14) rotate(28.35) scale(1.2 1)"><tspan x="0" y="0">s</tspan></text><text class="cls-20" transform="translate(376.65 297.11) rotate(28.35) scale(1.2 1)"><tspan x="0" y="0">t</tspan></text><text class="cls-20" transform="translate(379.84 298.84) rotate(28.35) scale(1.2 1)"><tspan x="0" y="0">i</tspan></text><text class="cls-20" transform="translate(382.1 300.06) rotate(28.35) scale(1.2 1)"><tspan x="0" y="0">m</tspan></text><text class="cls-20" transform="translate(389.28 303.93) rotate(28.35) scale(1.2 1)"><tspan x="0" y="0">u</tspan></text><text class="cls-20" transform="translate(394.08 306.52) rotate(28.35) scale(1.2 1)"><tspan x="0" y="0">l</tspan></text><text class="cls-20" transform="translate(396.33 307.74) rotate(28.35) scale(1.2 1)"><tspan x="0" y="0">a</tspan></text><text class="cls-20" transform="translate(400.77 310.13) rotate(28.35) scale(1.2 1)"><tspan x="0" y="0">t</tspan></text><text class="cls-20" transform="translate(403.97 311.86) rotate(28.35) scale(1.2 1)"><tspan x="0" y="0">i</tspan></text><text class="cls-20" transform="translate(406.21 313.07) rotate(28.35) scale(1.2 1)"><tspan x="0" y="0">n</tspan></text><text class="cls-20" transform="translate(411.01 315.66) rotate(28.35) scale(1.2 1)"><tspan x="0" y="0">g</tspan></text></g><g><text class="cls-26" transform="translate(360.86 323.55) rotate(35.56) scale(1.2 1)"><tspan x="0" y="0">a</tspan></text><text class="cls-26" transform="translate(365.53 326.9) rotate(35.56) scale(1.2 1)"><tspan x="0" y="0">m</tspan></text><text class="cls-26" transform="translate(373.11 332.31) rotate(35.56) scale(1.2 1)"><tspan x="0" y="0">u</tspan></text><text class="cls-26" transform="translate(378.2 335.95) rotate(35.56) scale(1.2 1)"><tspan x="0" y="0">s</tspan></text><text class="cls-26" transform="translate(382.05 338.71) rotate(35.56) scale(1.2 1)"><tspan x="0" y="0">e</tspan></text><text class="cls-26" transform="translate(386.65 341.99) rotate(35.56) scale(1.2 1)"><tspan x="0" y="0">d</tspan></text></g><g><text class="cls-26" transform="translate(315.35 360.1) rotate(57.81) scale(1.2 1)"><tspan x="0" y="0">d</tspan></text><text class="cls-26" transform="translate(318.54 365.19) rotate(57.81) scale(1.2 1)"><tspan x="0" y="0">e</tspan></text><text class="cls-26" transform="translate(321.56 369.97) rotate(57.81) scale(1.2 1)"><tspan x="0" y="0">l</tspan></text><text class="cls-26" transform="translate(323.11 372.44) rotate(57.81) scale(1.2 1)"><tspan x="0" y="0">i</tspan></text><text class="cls-26" transform="translate(324.68 374.93) rotate(57.81) scale(1.2 1)"><tspan x="0" y="0">g</tspan></text><text class="cls-26" transform="translate(327.66 379.66) rotate(57.81) scale(1.2 1)"><tspan x="0" y="0">h</tspan></text><text class="cls-26" transform="translate(330.99 384.95) rotate(57.81) scale(1.2 1)"><tspan x="0" y="0">t</tspan></text><text class="cls-26" transform="translate(333.19 388.46) rotate(57.81) scale(1.2 1)"><tspan x="0" y="0">f</tspan></text><text class="cls-26" transform="translate(335.17 391.6) rotate(57.81) scale(1.2 1)"><tspan x="0" y="0">u</tspan></text><text class="cls-26" transform="translate(338.48 396.86) rotate(57.81) scale(1.2 1)"><tspan x="0" y="0">l</tspan></text></g><g><text class="cls-26" transform="translate(288.31 379.82) rotate(67.46) scale(1.2 1)"><tspan x="0" y="0">c</tspan></text><text class="cls-26" transform="translate(290.19 384.37) rotate(67.46) scale(1.2 1)"><tspan x="0" y="0">h</tspan></text><text class="cls-26" transform="translate(292.59 390.14) rotate(67.46) scale(1.2 1)"><tspan x="0" y="0">e</tspan></text><text class="cls-26" transform="translate(294.75 395.36) rotate(67.46) scale(1.2 1)"><tspan x="0" y="0">e</tspan></text><text class="cls-26" transform="translate(296.91 400.56) rotate(67.46) scale(1.2 1)"><tspan x="0" y="0">r</tspan></text><text class="cls-26" transform="translate(298.57 404.57) rotate(67.46) scale(1.2 1)"><tspan x="0" y="0">f</tspan></text><text class="cls-26" transform="translate(299.99 407.99) rotate(67.47) scale(1.2 1)"><tspan x="0" y="0">u</tspan></text><text class="cls-26" transform="translate(302.38 413.74) rotate(67.47) scale(1.2 1)"><tspan x="0" y="0">l</tspan></text></g><g><text class="cls-29" transform="translate(258.94 386.88) rotate(76.96) scale(1.2 1)"><tspan x="0" y="0">s</tspan></text><text class="cls-29" transform="translate(260.14 392.07) rotate(76.96) scale(1.2 1)"><tspan x="0" y="0">a</tspan></text><text class="cls-29" transform="translate(261.6 398.36) rotate(76.96) scale(1.2 1)"><tspan x="0" y="0">t</tspan></text><text class="cls-29" transform="translate(262.65 402.89) rotate(76.96) scale(1.2 1)"><tspan x="0" y="0">i</tspan></text><text class="cls-29" transform="translate(263.4 406.12) rotate(76.96) scale(1.2 1)"><tspan x="0" y="0">s</tspan></text><text class="cls-29" transform="translate(264.59 411.29) rotate(76.96) scale(1.2 1)"><tspan x="0" y="0">fi</tspan></text><text class="cls-29" transform="translate(266.28 418.55) rotate(76.96) scale(1.2 1)"><tspan x="0" y="0">e</tspan></text><text class="cls-29" transform="translate(267.71 424.75) rotate(76.96) scale(1.2 1)"><tspan x="0" y="0">d</tspan></text></g><g><text class="cls-26" transform="translate(231.91 393.81) rotate(86.59) scale(1.2 1)"><tspan x="0" y="0">v</tspan></text><text class="cls-26" transform="translate(232.22 399.06) rotate(86.59) scale(1.2 1)"><tspan x="0" y="0">a</tspan></text><text class="cls-26" transform="translate(232.56 404.79) rotate(86.59) scale(1.2 1)"><tspan x="0" y="0">l</tspan></text><text class="cls-26" transform="translate(232.73 407.69) rotate(86.59) scale(1.2 1)"><tspan x="0" y="0">u</tspan></text><text class="cls-26" transform="translate(233.11 413.92) rotate(86.59) scale(1.2 1)"><tspan x="0" y="0">a</tspan></text><text class="cls-26" transform="translate(233.45 419.67) rotate(86.59) scale(1.2 1)"><tspan x="0" y="0">b</tspan></text><text class="cls-26" transform="translate(233.81 425.69) rotate(86.59) scale(1.2 1)"><tspan x="0" y="0">l</tspan></text><text class="cls-26" transform="translate(233.98 428.61) rotate(86.59) scale(1.2 1)"><tspan x="0" y="0">e</tspan></text></g><g><text class="cls-20" transform="translate(199.76 393.24) rotate(98.58) scale(1.2 1)"><tspan x="0" y="0">w</tspan></text><text class="cls-20" transform="translate(198.7 400.27) rotate(98.58) scale(1.2 1)"><tspan x="0" y="0">o</tspan></text><text class="cls-20" transform="translate(197.93 405.36) rotate(98.58) scale(1.2 1)"><tspan x="0" y="0">r</tspan></text><text class="cls-20" transform="translate(197.37 409.11) rotate(98.58) scale(1.2 1)"><tspan x="0" y="0">t</tspan></text><text class="cls-20" transform="translate(196.83 412.7) rotate(98.58) scale(1.2 1)"><tspan x="0" y="0">h</tspan></text><text class="cls-20" transform="translate(196.01 418.09) rotate(98.58) scale(1.2 1)"><tspan x="0" y="0">w</tspan></text><text class="cls-20" transform="translate(194.93 425.29) rotate(98.58) scale(1.2 1)"><tspan x="0" y="0">h</tspan></text><text class="cls-20" transform="translate(194.11 430.68) rotate(98.58) scale(1.2 1)"><tspan x="0" y="0">i</tspan></text></g><g><text class="cls-22" transform="translate(166.35 424.78) rotate(-73.39) scale(1.2 1)"><tspan x="0" y="0">i</tspan></text><text class="cls-22" transform="translate(166.98 422.67) rotate(-73.39) scale(1.2 1)"><tspan x="0" y="0">n</tspan></text><text class="cls-22" transform="translate(168.32 418.17) rotate(-73.39) scale(1.2 1)"><tspan x="0" y="0">t</tspan></text><text class="cls-22" transform="translate(169.21 415.2) rotate(-73.39) scale(1.2 1)"><tspan x="0" y="0">e</tspan></text><text class="cls-22" transform="translate(170.42 411.14) rotate(-73.39) scale(1.2 1)"><tspan x="0" y="0">l</tspan></text><text class="cls-22" transform="translate(171.05 409.03) rotate(-73.39) scale(1.2 1)"><tspan x="0" y="0">l</tspan></text><text class="cls-22" transform="translate(171.67 406.95) rotate(-73.39) scale(1.2 1)"><tspan x="0" y="0">i</tspan></text><text class="cls-22" transform="translate(172.3 404.85) rotate(-73.39) scale(1.2 1)"><tspan x="0" y="0">g</tspan></text><text class="cls-22" transform="translate(173.5 400.8) rotate(-73.39) scale(1.2 1)"><tspan x="0" y="0">e</tspan></text><text class="cls-22" transform="translate(174.71 396.75) rotate(-73.39) scale(1.2 1)"><tspan x="0" y="0">n</tspan></text><text class="cls-22" transform="translate(176.05 392.26) rotate(-73.39) scale(1.2 1)"><tspan x="0" y="0">t</tspan></text></g><g><text class="cls-20" transform="translate(132.71 414.73) rotate(-62.2) scale(1.2 1)"><tspan x="0" y="0">c</tspan></text><text class="cls-20" transform="translate(134.71 410.94) rotate(-62.2) scale(1.2 1)"><tspan x="0" y="0">o</tspan></text><text class="cls-20" transform="translate(137.12 406.37) rotate(-62.2) scale(1.2 1)"><tspan x="0" y="0">n</tspan></text><text class="cls-20" transform="translate(139.67 401.53) rotate(-62.2) scale(1.2 1)"><tspan x="0" y="0">fi</tspan></text><text class="cls-20" transform="translate(142.38 396.41) rotate(-62.2) scale(1.2 1)"><tspan x="0" y="0">d</tspan></text><text class="cls-20" transform="translate(144.84 391.74) rotate(-62.2) scale(1.2 1)"><tspan x="0" y="0">e</tspan></text><text class="cls-20" transform="translate(147.14 387.38) rotate(-62.2) scale(1.2 1)"><tspan x="0" y="0">n</tspan></text><text class="cls-20" transform="translate(149.69 382.54) rotate(-62.2) scale(1.2 1)"><tspan x="0" y="0">t</tspan></text><text class="cls-20" transform="translate(151.39 379.31) rotate(-62.2) scale(1.2 1)"><tspan x="0" y="0"> </tspan></text></g><g><text class="cls-20" transform="translate(104.9 398.15) rotate(-57.11) scale(1.2 1)"><tspan x="0" y="0">t</tspan></text><text class="cls-20" transform="translate(106.88 395.09) rotate(-57.11) scale(1.2 1)"><tspan x="0" y="0">h</tspan></text><text class="cls-20" transform="translate(109.83 390.52) rotate(-57.11) scale(1.2 1)"><tspan x="0" y="0">a</tspan></text><text class="cls-20" transform="translate(112.57 386.29) rotate(-57.11) scale(1.2 1)"><tspan x="0" y="0">n</tspan></text><text class="cls-20" transform="translate(115.53 381.7) rotate(-57.11) scale(1.2 1)"><tspan x="0" y="0">k</tspan></text><text class="cls-20" transform="translate(118.35 377.34) rotate(-57.11) scale(1.2 1)"><tspan x="0" y="0">f</tspan></text><text class="cls-20" transform="translate(120.11 374.62) rotate(-57.11) scale(1.2 1)"><tspan x="0" y="0">u</tspan></text><text class="cls-20" transform="translate(123.08 370.04) rotate(-57.11) scale(1.2 1)"><tspan x="0" y="0">l</tspan></text></g><g><text class="cls-20" transform="translate(44.38 345.77) rotate(-32.92) scale(1.2 1)"><tspan x="0" y="0">s</tspan></text><text class="cls-20" transform="translate(47.85 343.53) rotate(-32.92) scale(1.2 1)"><tspan x="0" y="0">e</tspan></text><text class="cls-20" transform="translate(52 340.84) rotate(-32.92) scale(1.2 1)"><tspan x="0" y="0">r</tspan></text><text class="cls-20" transform="translate(55.04 338.87) rotate(-32.92) scale(1.2 1)"><tspan x="0" y="0">e</tspan></text><text class="cls-20" transform="translate(59.2 336.18) rotate(-32.92) scale(1.2 1)"><tspan x="0" y="0">n</tspan></text><text class="cls-20" transform="translate(63.79 333.21) rotate(-32.92) scale(1.2 1)"><tspan x="0" y="0">e</tspan></text><text class="cls-20" transform="translate(67.94 330.52) rotate(-32.92) scale(1.2 1)"><tspan x="0" y="0"> </tspan></text></g><g><text class="cls-22" transform="translate(25.15 312.92) rotate(-23.61) scale(1.2 1)"><tspan x="0" y="0">r</tspan></text><text class="cls-22" transform="translate(28.02 311.67) rotate(-23.61) scale(1.2 1)"><tspan x="0" y="0">e</tspan></text><text class="cls-22" transform="translate(31.91 309.97) rotate(-23.61) scale(1.2 1)"><tspan x="0" y="0">s</tspan></text><text class="cls-22" transform="translate(35.14 308.56) rotate(-23.61) scale(1.2 1)"><tspan x="0" y="0">p</tspan></text><text class="cls-22" transform="translate(39.3 306.74) rotate(-23.61) scale(1.2 1)"><tspan x="0" y="0">o</tspan></text><text class="cls-22" transform="translate(43.35 304.97) rotate(-23.61) scale(1.2 1)"><tspan x="0" y="0">n</tspan></text><text class="cls-22" transform="translate(47.66 303.09) rotate(-23.61) scale(1.2 1)"><tspan x="0" y="0">s</tspan></text><text class="cls-22" transform="translate(50.91 301.67) rotate(-23.61) scale(1.2 1)"><tspan x="0" y="0">i</tspan></text><text class="cls-22" transform="translate(52.93 300.78) rotate(-23.61) scale(1.2 1)"><tspan x="0" y="0">v</tspan></text><text class="cls-22" transform="translate(56.53 299.21) rotate(-23.61) scale(1.2 1)"><tspan x="0" y="0">e</tspan></text></g><g><text class="cls-20" transform="translate(17.84 283.82) rotate(-17.04) scale(1.2 1)"><tspan x="0" y="0">r</tspan></text><text class="cls-20" transform="translate(21.3 282.76) rotate(-17.04) scale(1.2 1)"><tspan x="0" y="0">e</tspan></text><text class="cls-20" transform="translate(26 281.31) rotate(-17.04) scale(1.2 1)"><tspan x="0" y="0">l</tspan></text><text class="cls-20" transform="translate(28.45 280.56) rotate(-17.04) scale(1.2 1)"><tspan x="0" y="0">a</tspan></text><text class="cls-20" transform="translate(33.26 279.09) rotate(-17.04) scale(1.2 1)"><tspan x="0" y="0">x</tspan></text><text class="cls-20" transform="translate(37.76 277.71) rotate(-17.04) scale(1.2 1)"><tspan x="0" y="0">e</tspan></text><text class="cls-20" transform="translate(42.49 276.26) rotate(-17.04) scale(1.2 1)"><tspan x="0" y="0">d</tspan></text></g><g><text class="cls-20" transform="translate(9.15 242.63) rotate(-6.57) scale(1.2 1)"><tspan x="0" y="0">p</tspan></text><text class="cls-20" transform="translate(14.4 242.03) rotate(-6.57) scale(1.2 1)"><tspan x="0" y="0">e</tspan></text><text class="cls-20" transform="translate(19.29 241.47) rotate(-6.57) scale(1.2 1)"><tspan x="0" y="0">n</tspan></text><text class="cls-20" transform="translate(24.73 240.84) rotate(-6.57) scale(1.2 1)"><tspan x="0" y="0">s</tspan></text><text class="cls-20" transform="translate(28.85 240.37) rotate(-6.57) scale(1.2 1)"><tspan x="0" y="0">i</tspan></text><text class="cls-20" transform="translate(31.4 240.07) rotate(-6.57) scale(1.2 1)"><tspan x="0" y="0">v</tspan></text><text class="cls-20" transform="translate(35.97 239.54) rotate(-6.57) scale(1.2 1)"><tspan x="0" y="0">e</tspan></text></g><g><text class="cls-20" transform="translate(5.18 205.43) rotate(3.78) scale(1.2 1)"><tspan x="0" y="0">a</tspan></text><text class="cls-20" transform="translate(10.21 205.76) rotate(3.78) scale(1.2 1)"><tspan x="0" y="0">p</tspan></text><text class="cls-20" transform="translate(15.46 206.11) rotate(3.78) scale(1.2 1)"><tspan x="0" y="0">a</tspan></text><text class="cls-20" transform="translate(20.5 206.44) rotate(3.78) scale(1.2 1)"><tspan x="0" y="0">t</tspan></text><text class="cls-20" transform="translate(24.11 206.68) rotate(3.78) scale(1.2 1)"><tspan x="0" y="0">h</tspan></text><text class="cls-20" transform="translate(29.58 207.04) rotate(3.78) scale(1.2 1)"><tspan x="0" y="0">e</tspan></text><text class="cls-20" transform="translate(34.5 207.37) rotate(3.78) scale(1.2 1)"><tspan x="0" y="0">t</tspan></text><text class="cls-20" transform="translate(38.12 207.61) rotate(3.77) scale(1.2 1)"><tspan x="0" y="0">i</tspan></text><text class="cls-20" transform="translate(40.66 207.77) rotate(3.78) scale(1.2 1)"><tspan x="0" y="0">c</tspan></text></g><g><text class="cls-20" transform="translate(14.44 174.43) rotate(12.83) scale(1.2 1)"><tspan x="0" y="0">i</tspan></text><text class="cls-20" transform="translate(16.96 175) rotate(12.83) scale(1.2 1)"><tspan x="0" y="0">n</tspan></text><text class="cls-20" transform="translate(22.27 176.21) rotate(12.83) scale(1.2 1)"><tspan x="0" y="0">f</tspan></text><text class="cls-20" transform="translate(25.43 176.93) rotate(12.83) scale(1.2 1)"><tspan x="0" y="0">e</tspan></text><text class="cls-20" transform="translate(30.25 178.03) rotate(12.83) scale(1.2 1)"><tspan x="0" y="0">r</tspan></text><text class="cls-20" transform="translate(33.93 178.87) rotate(12.83) scale(1.2 1)"><tspan x="0" y="0">i</tspan></text><text class="cls-20" transform="translate(36.45 179.44) rotate(12.83) scale(1.2 1)"><tspan x="0" y="0">o</tspan></text><text class="cls-20" transform="translate(41.49 180.59) rotate(12.83) scale(1.2 1)"><tspan x="0" y="0">r</tspan></text></g><g><text class="cls-20" transform="translate(22.4 135.15) rotate(20.49) scale(1.2 1)"><tspan x="0" y="0">i</tspan></text><text class="cls-20" transform="translate(24.81 136.05) rotate(20.49) scale(1.2 1)"><tspan x="0" y="0">n</tspan></text><text class="cls-20" transform="translate(29.92 137.96) rotate(20.49) scale(1.2 1)"><tspan x="0" y="0">a</tspan></text><text class="cls-20" transform="translate(34.63 139.72) rotate(20.49) scale(1.2 1)"><tspan x="0" y="0">d</tspan></text><text class="cls-20" transform="translate(39.59 141.57) rotate(20.49) scale(1.2 1)"><tspan x="0" y="0">e</tspan></text><text class="cls-20" transform="translate(44.22 143.3) rotate(20.49) scale(1.2 1)"><tspan x="0" y="0">q</tspan></text><text class="cls-20" transform="translate(49.16 145.15) rotate(20.49) scale(1.2 1)"><tspan x="0" y="0">u</tspan></text><text class="cls-20" transform="translate(54.28 147.06) rotate(20.49) scale(1.2 1)"><tspan x="0" y="0">a</tspan></text><text class="cls-20" transform="translate(59 148.82) rotate(20.49) scale(1.2 1)"><tspan x="0" y="0">t</tspan></text><text class="cls-20" transform="translate(62.39 150.09) rotate(20.49) scale(1.2 1)"><tspan x="0" y="0">e</tspan></text></g><g><text class="cls-20" transform="translate(39.83 105.11) rotate(32.17) scale(1.2 1)"><tspan x="0" y="0">m</tspan></text><text class="cls-20" transform="translate(46.72 109.45) rotate(32.17) scale(1.2 1)"><tspan x="0" y="0">i</tspan></text><text class="cls-20" transform="translate(48.9 110.82) rotate(32.17) scale(1.2 1)"><tspan x="0" y="0">s</tspan></text><text class="cls-20" transform="translate(52.4 113.02) rotate(32.17) scale(1.2 1)"><tspan x="0" y="0">e</tspan></text><text class="cls-20" transform="translate(56.58 115.65) rotate(32.17) scale(1.2 1)"><tspan x="0" y="0">r</tspan></text><text class="cls-20" transform="translate(59.65 117.58) rotate(32.17) scale(1.2 1)"><tspan x="0" y="0">a</tspan></text><text class="cls-20" transform="translate(63.91 120.26) rotate(32.17) scale(1.2 1)"><tspan x="0" y="0">b</tspan></text><text class="cls-20" transform="translate(68.38 123.07) rotate(32.17) scale(1.2 1)"><tspan x="0" y="0">l</tspan></text><text class="cls-20" transform="translate(70.54 124.43) rotate(32.17) scale(1.2 1)"><tspan x="0" y="0">e</tspan></text></g><text class="cls-20" transform="translate(64.24 76.92) rotate(45) scale(1.2 1)"><tspan x="0" y="0">s</tspan><tspan x="3.45" y="0">t</tspan><tspan x="6.45" y="0">u</tspan><tspan x="10.99" y="0">p</tspan><tspan x="15.37" y="0">i</tspan><tspan x="17.5" y="0">d</tspan></text><g><text class="cls-20" transform="translate(92.89 49.19) rotate(51.39) scale(1.2 1)"><tspan x="0" y="0">b</tspan></text><text class="cls-20" transform="translate(96.18 53.31) rotate(51.39) scale(1.2 1)"><tspan x="0" y="0">a</tspan></text><text class="cls-20" transform="translate(99.32 57.25) rotate(51.39) scale(1.2 1)"><tspan x="0" y="0">s</tspan></text><text class="cls-20" transform="translate(101.9 60.47) rotate(51.39) scale(1.2 1)"><tspan x="0" y="0">h</tspan></text><text class="cls-20" transform="translate(105.32 64.75) rotate(51.39) scale(1.2 1)"><tspan x="0" y="0">f</tspan></text><text class="cls-20" transform="translate(107.34 67.28) rotate(51.39) scale(1.2 1)"><tspan x="0" y="0">u</tspan></text><text class="cls-20" transform="translate(110.74 71.55) rotate(51.39) scale(1.2 1)"><tspan x="0" y="0">l</tspan></text></g><text class="cls-29" transform="translate(68.4 374.78) rotate(-43.49)"><tspan x="0" y="0">S</tspan></text><text class="cls-29" transform="translate(71.96 371.4) rotate(-43.49)"><tspan x="0" y="0">e</tspan></text><text class="cls-29" transform="translate(75.79 367.76) rotate(-43.49)"><tspan x="0" y="0">n</tspan></text><text class="cls-29" transform="translate(80.03 363.75) rotate(-43.49)"><tspan x="0" y="0">t</tspan></text><text class="cls-29" transform="translate(82.85 361.07) rotate(-43.49)"><tspan x="0" y="0">i</tspan></text><text class="cls-29" transform="translate(84.83 359.19) rotate(-43.49)"><tspan x="0" y="0">m</tspan></text><text class="cls-29" transform="translate(91.17 353.18) rotate(-43.49)"><tspan x="0" y="0">e</tspan></text><text class="cls-29" transform="translate(94.99 349.55) rotate(-43.49)"><tspan x="0" y="0">n</tspan></text><text class="cls-29" transform="translate(99.22 345.54) rotate(-43.49)"><tspan x="0" y="0">t</tspan></text><text class="cls-29" transform="translate(102.02 342.89) rotate(-43.49)"><tspan x="0" y="0"> </tspan></text><g id="Layer_9"><text class="cls-30" transform="translate(338.96 342.04) rotate(44.56)"><tspan x="0" y="0">e</tspan></text><text class="cls-30" transform="translate(342.2 345.24) rotate(44.56)"><tspan x="0" y="0">x</tspan></text><text class="cls-30" transform="translate(345.48 348.46) rotate(44.56)"><tspan x="0" y="0">t</tspan></text><text class="cls-30" transform="translate(347.93 350.88) rotate(44.56)"><tspan x="0" y="0">r</tspan></text><text class="cls-30" transform="translate(350.39 353.3) rotate(44.56)"><tspan x="0" y="0">a</tspan></text><text class="cls-30" transform="translate(353.79 356.65) rotate(44.56)"><tspan x="0" y="0">v</tspan></text><text class="cls-30" transform="translate(356.9 359.71) rotate(44.56)"><tspan x="0" y="0">a</tspan></text><text class="cls-30" transform="translate(360.31 363.07) rotate(44.56)"><tspan x="0" y="0">g</tspan></text><text class="cls-30" transform="translate(363.63 366.34) rotate(44.56)"><tspan x="0" y="0">a</tspan></text><text class="cls-30" transform="translate(367.02 369.68) rotate(44.56)"><tspan x="0" y="0">n</tspan></text><text class="cls-30" transform="translate(370.73 373.33) rotate(44.56)"><tspan x="0" y="0">t</tspan></text></g></g></g></g></g></svg>