<?xml version="1.0" encoding="UTF-8"?><svg id="Layer_2" xmlns="http://www.w3.org/2000/svg" viewBox="0 0 3300 2200"><defs><style>.cls-1{fill:#fff;}.cls-2{stroke:#010101;}.cls-2,.cls-3,.cls-4{fill:none;stroke-width:.5px;}.cls-3{stroke:#29aae1;}.cls-5{letter-spacing:-.07em;}.cls-6{fill:#29aae1;}.cls-7{font-family:Arial-BoldMT, Arial;}.cls-7,.cls-8{font-size:13px;isolation:isolate;}.cls-7,.cls-8,.cls-9{fill:#010101;}.cls-8{font-family:ArialMT, Arial;}.cls-10{letter-spacing:-.06em;}.cls-11{letter-spacing:-.06em;}.cls-12{letter-spacing:-.11em;}.cls-4{stroke:#2bace2;}.cls-13{letter-spacing:-.02em;}</style></defs><g id="Layer_1-2"><g><g id="Notes"><rect id="artboard" class="cls-1" width="3300" height="2200"/><line class="cls-2" x1="240.04" y1="269.04" x2="3013.04" y2="269.04"/><text class="cls-7" transform="translate(240.04 299.04)"><tspan class="cls-13" x="0" y="0">W</tspan><tspan x="12.04" y="0">eight/Scale </tspan><tspan class="cls-10" x="84.28" y="0">V</tspan><tspan x="92.24" y="0">ariations</tspan></text><text class="cls-8" transform="translate(511.11 299.04)"><tspan x="0" y="0">Ultralight</tspan></text><text class="cls-8" transform="translate(820.82 299.04)"><tspan x="0" y="0">Thin</tspan></text><text class="cls-8" transform="translate(1116.08 299.04)"><tspan x="0" y="0">Light</tspan></text><text class="cls-8" transform="translate(1404.12 299.04)"><tspan x="0" y="0">Regular</tspan></text><text class="cls-8" transform="translate(1700.49 299.04)"><tspan x="0" y="0">Medium</tspan></text><text class="cls-8" transform="translate(1993.22 299.04)"><tspan x="0" y="0">Semibold</tspan></text><text class="cls-8" transform="translate(2304.01 299.04)"><tspan x="0" y="0">Bold</tspan></text><text class="cls-8" transform="translate(2595.31 299.04)"><tspan x="0" y="0">Heavy</tspan></text><text class="cls-8" transform="translate(2894.55 299.04)"><tspan x="0" y="0">Black</tspan></text><line class="cls-2" x1="240.04" y1="1880.04" x2="3013.04" y2="1880.04"/><g transform="matrix(0.2 0 0 0.2 263 1933)"><path class="cls-9" d="M249.29,1910.87c4.36,0,7.89-3.53,7.89-7.88s-3.54-7.88-7.89-7.88-7.88,3.53-7.88,7.88,3.54,7.88,7.88,7.88Zm0-1.48c-3.54,0-6.39-2.86-6.39-6.4s2.85-6.4,6.39-6.4,6.4,2.86,6.4,6.4-2.86,6.4-6.4,6.4Zm-3.59-6.4c0,.43,.3,.72,.75,.72h2.1v2.12c0,.44,.29,.74,.72,.74s.74-.3,.74-.74v-2.12h2.12c.44,0,.74-.29,.74-.72s-.3-.74-.74-.74h-2.12v-2.11c0-.45-.29-.75-.74-.75s-.72,.3-.72,.75v2.11h-2.1c-.45,0-.75,.3-.75,.74Z"/></g><g transform="matrix(0.2 0 0 0.2 281.506 1933)"><path class="cls-9" d="M270.26,1912.95c5.5,0,9.96-4.46,9.96-9.96s-4.46-9.96-9.96-9.96-9.96,4.46-9.96,9.96,4.46,9.96,9.96,9.96Zm0-1.66c-4.59,0-8.3-3.71-8.3-8.3s3.71-8.3,8.3-8.3,8.3,3.71,8.3,8.3-3.71,8.3-8.3,8.3Zm-4.53-8.3c0,.48,.33,.8,.83,.8h2.87v2.88c0,.49,.33,.83,.81,.83s.83-.33,.83-.83v-2.88h2.88c.49,0,.83-.32,.83-.8s-.34-.83-.83-.83h-2.88v-2.87c0-.5-.34-.84-.83-.84s-.81,.34-.81,.84v2.87h-2.87c-.5,0-.83,.34-.83,.83Z"/></g><g transform="matrix(0.2 0 0 0.2 304.924 1933)"><path class="cls-9" d="M296.94,1915.71c7.02,0,12.72-5.69,12.72-12.71s-5.7-12.72-12.72-12.72-12.71,5.7-12.71,12.72,5.69,12.71,12.71,12.71Zm0-1.82c-6.03,0-10.9-4.87-10.9-10.9s4.87-10.9,10.9-10.9,10.9,4.87,10.9,10.9-4.87,10.9-10.9,10.9Zm-5.77-10.9c0,.52,.37,.88,.92,.88h3.95v3.96c0,.54,.37,.92,.89,.92s.91-.37,.91-.92v-3.96h3.96c.54,0,.92-.36,.92-.88,0-.55-.37-.92-.92-.92h-3.96v-3.95c0-.55-.37-.93-.91-.93s-.89,.38-.89,.93v3.95h-3.95c-.55,0-.92,.37-.92,.92Z"/></g><text class="cls-7" transform="translate(240.04 1930.04)"><tspan x="0" y="0">Design </tspan><tspan class="cls-10" x="46.95" y="0">V</tspan><tspan x="54.91" y="0">ariations</tspan></text><text class="cls-8" transform="translate(240.04 1948.04)"><tspan x="0" y="0">Symbols are supported in up to nine weights and three scales.</tspan></text><text class="cls-8" transform="translate(240.04 1966.04)"><tspan x="0" y="0">For optimal layout with text and other symbols, vertically align</tspan></text><text class="cls-8" transform="translate(240.04 1984.04)"><tspan x="0" y="0">symbols with the adjacent text.</tspan></text><line class="cls-4" x1="753.04" y1="1896.04" x2="753.04" y2="1910.04"/><g transform="matrix(0.2 0 0 0.2 776 1933)"><path class="cls-9" d="M756.35,1910.2c.52,0,.77-.2,.96-.74l1.26-3.45h5.76l1.26,3.45c.19,.55,.44,.74,.95,.74s.85-.31,.85-.8c0-.17-.03-.32-.11-.53l-4.58-12.2c-.22-.6-.63-.9-1.25-.9s-1.02,.29-1.23,.89l-4.58,12.22c-.08,.21-.11,.36-.11,.53,0,.49,.31,.79,.82,.79Zm2.7-5.67l2.37-6.57h.05l2.37,6.57h-4.79Z"/></g><line class="cls-4" x1="769.88" y1="1896.04" x2="769.88" y2="1910.04"/><text class="cls-7" transform="translate(753.04 1930.04)"><tspan x="0" y="0">Margins</tspan></text><text class="cls-8" transform="translate(753.04 1948.04)"><tspan x="0" y="0">Leading and trailing margins on the left and right side of each symbol</tspan></text><text class="cls-8" transform="translate(753.04 1966.04)"><tspan x="0" y="0">can be adjusted by modifying the x-location of the margin guidelines.</tspan></text><text class="cls-8" transform="translate(753.04 1984.04)"><tspan x="0" y="0">Modifications are automatically applied proportionally to all</tspan></text><text class="cls-8" transform="translate(753.04 2002.04)"><tspan x="0" y="0">scales and weights.</tspan></text><g transform="matrix(0.2 0 0 0.2 1289 1933)"><path class="cls-9" d="M1268.89,1911.91l1.7,1.71c.86,.87,1.85,.81,2.77-.21l10.69-11.79-.97-.98-10.62,11.68c-.35,.4-.68,.5-1.15,.03l-1.17-1.16c-.47-.46-.36-.8,.04-1.16l11.47-10.8-.98-.97-11.59,10.89c-.99,.92-1.06,1.89-.21,2.76h0Zm6.42-18.19c-.42,.41-.45,.99-.21,1.38,.23,.36,.69,.6,1.34,.43,1.46-.34,2.99-.4,4.41,.54l-.59,1.46c-.34,.83-.17,1.42,.37,1.96l2.29,2.31c.49,.49,.9,.51,1.46,.41l1.06-.2,.66,.67-.04,.56c-.04,.5,.09,.88,.58,1.36l.76,.74c.48,.48,1.09,.51,1.56,.04l2.91-2.92c.47-.47,.45-1.06-.03-1.54l-.77-.76c-.48-.48-.85-.63-1.33-.6l-.58,.05-.64-.63,.24-1.12c.13-.57-.03-1.01-.62-1.59l-2.2-2.19c-3.34-3.32-7.77-3.24-10.66-.35h0Zm1.49,.37c2.43-1.78,5.72-1.47,7.95,.75l2.43,2.41c.23,.23,.27,.42,.21,.76l-.32,1.48,1.5,1.48,.99-.06c.25,0,.33,0,.53,.21l.58,.58-2.44,2.44-.58-.58c-.2-.2-.22-.27-.21-.54l.07-.98-1.49-1.48-1.52,.25c-.32,.07-.47,.04-.71-.2l-2-2c-.25-.23-.28-.4-.13-.77l.88-2.09c-1.56-1.46-3.59-2.08-5.63-1.48-.16,.04-.21-.09-.09-.2h0Z"/></g><text class="cls-7" transform="translate(1266.04 1930.04)"><tspan x="0" y="0">Exporting</tspan></text><text class="cls-8" transform="translate(1266.04 1948.04)"><tspan x="0" y="0">Symbols should be outlined when exporting to ensure the</tspan></text><text class="cls-8" transform="translate(1266.04 1966.04)"><tspan x="0" y="0">design is preserved when submitting to Xcode.</tspan></text><text id="template-version" class="cls-8" transform="translate(2929.46 1910.04)"><tspan class="cls-12" x="0" y="0">T</tspan><tspan x="6.5" y="0">emplate </tspan><tspan class="cls-5" x="56.36" y="0">v</tspan><tspan x="61.9" y="0">.6.0</tspan></text><text class="cls-8" transform="translate(2842.5 1928.04)"><tspan x="0" y="0">Requires Xcode 16 or greater</tspan></text><text id="descriptive-name" class="cls-8" transform="translate(2867.08 1946.04)"><tspan x="0" y="0">Generated from house.fill</tspan></text><text class="cls-8" transform="translate(2878.62 1964.04)"><tspan class="cls-11" x="0" y="0">T</tspan><tspan x="7.22" y="0">ypeset at 100.0 points</tspan></text><text class="cls-8" transform="translate(240.04 703.04)"><tspan x="0" y="0">Small</tspan></text><text class="cls-8" transform="translate(240.04 1133.04)"><tspan x="0" y="0">Medium</tspan></text><text class="cls-8" transform="translate(240.04 1563.04)"><tspan x="0" y="0">Large</tspan></text></g><g id="Guides"><g id="H-reference" transform="matrix(1 0 0 1 339 696)"><path class="cls-6" d="M317.04,673.04h2.64l25.69-67.13h.7v-3.33h-1.91l-27.13,70.46Zm10.69-24.48h35.29l-.75-2.25h-33.79l-.75,2.25Zm43.43,24.48h2.64l-27.13-70.46h-1.21v3.33l25.69,67.13Z"/></g><line id="Baseline-S" class="cls-3" x1="240.04" y1="673.04" x2="3013.04" y2="673.04"/><line id="Capline-S" class="cls-3" x1="240.04" y1="602.58" x2="3013.04" y2="602.58"/><g id="H-reference-2" transform="matrix(1 0 0 1 339 1126)"><path class="cls-6" d="M317.04,1103.04h2.64l25.69-67.13h.7v-3.33h-1.91l-27.13,70.46Zm10.69-24.48h35.29l-.75-2.25h-33.79l-.75,2.25Zm43.43,24.48h2.64l-27.13-70.46h-1.21v3.33l25.69,67.13Z"/></g><line id="Baseline-M" class="cls-3" x1="240.04" y1="1103.04" x2="3013.04" y2="1103.04"/><line id="Capline-M" class="cls-3" x1="240.04" y1="1032.58" x2="3013.04" y2="1032.58"/><g id="H-reference-3" transform="matrix(1 0 0 1 339 1556)"><path class="cls-6" d="M317.04,1533.04h2.64l25.69-67.13h.7v-3.33h-1.91l-27.13,70.46Zm10.69-24.48h35.29l-.75-2.25h-33.79l-.75,2.25Zm43.43,24.48h2.64l-27.13-70.46h-1.21v3.33l25.69,67.13Z"/></g><line id="Baseline-L" class="cls-3" x1="240.04" y1="1533.04" x2="3013.04" y2="1533.04"/><line id="Capline-L" class="cls-3" x1="240.04" y1="1462.58" x2="3013.04" y2="1462.58"/><line id="right-margin-Black-S" class="cls-4" x1="2972.01" y1="577.83" x2="2972.01" y2="697.16"/><line id="left-margin-Black-S" class="cls-4" x1="2848.87" y1="577.83" x2="2848.87" y2="697.16"/><line id="right-margin-Regular-S" class="cls-4" x1="1483.28" y1="577.83" x2="1483.28" y2="697.16"/><line id="left-margin-Regular-S" class="cls-4" x1="1370.49" y1="577.83" x2="1370.49" y2="697.16"/><line id="right-margin-Ultralight-S" class="cls-4" x1="588" y1="577.83" x2="588" y2="697.16"/><line id="left-margin-Ultralight-S" class="cls-4" x1="485.51" y1="577.83" x2="485.51" y2="697.16"/></g><g id="Symbols"><g id="Black-S" transform="matrix(1 0 0 1 2871.83 696)"><path class="cls-2" d="M2873.14,671.92c0,6.35,4.64,10.6,11.62,10.6h51.22c6.98,0,11.62-4.25,11.62-10.6v-23.83l-34.52-29c-1.66-1.42-3.66-1.42-5.32,0l-34.62,29v23.83Zm-7.52-29.69c1.76,0,3.71-.78,5.32-2.15l36.47-30.57c.98-.83,2-1.27,3.03-1.27s2.05,.44,3.03,1.27l36.47,30.57c1.61,1.37,3.57,2.15,5.32,2.15,4.2,0,6.98-2.64,6.98-6.64,0-2-1.07-4.15-2.88-5.66l-39.79-33.4c-2.73-2.29-5.96-3.47-9.13-3.47s-6.4,1.17-9.13,3.47l-39.79,33.4c-1.81,1.51-2.88,3.66-2.88,5.66,0,4,2.78,6.64,6.98,6.64Zm66.02-31.45l16.8,13.96v-21.48c0-1.9-1.22-3.12-3.12-3.12h-10.5c-1.9,0-3.17,1.22-3.17,3.12v7.52Z"/></g><g id="Regular-S" transform="matrix(1 0 0 1 1393.45 696)"><path class="cls-2" d="M1426.61,649.87c1.59-1.11,2.8-2.2,4.24-2.92,6.29-3.15,13.71,.99,13.64,7.52-.03,2.47-.89,4.6-2.78,6.38-4.26,4.01-8.51,8.03-12.78,12.03-1.46,1.37-2.47,1.4-3.89,.07-4.34-4.06-8.72-8.08-12.96-12.23-4.21-4.12-3.56-10.12,1.3-13.4,3.41-2.31,8.49-1.85,11.97,1.11,.52,.44,.9,1.02,1.27,1.44Z"/><path class="cls-2" d="M1392.81,669.63c0,5.57,3.37,8.84,9.03,8.84h50.1c5.66,0,9.03-3.27,9.03-8.84v-28.86l-31.84-26.66c-1.37-1.17-3.17-1.12-4.49,0l-31.84,26.66v28.86Zm-8.74-30.37c1.22,0,2.25-.68,3.12-1.42l38.43-32.28c.39-.34,.88-.49,1.27-.49s.83,.15,1.22,.49l38.48,32.28c.88,.73,1.9,1.42,3.12,1.42,2.39,0,3.81-1.71,3.81-3.52,0-.98-.44-2.05-1.37-2.83l-40.38-33.89c-1.56-1.27-3.22-1.9-4.88-1.9s-3.37,.63-4.88,1.9l-40.38,33.89c-.93,.78-1.37,1.86-1.37,2.83,0,1.81,1.42,3.52,3.81,3.52Zm67.29-22.02l10.55,8.89v-17.68c0-1.86-1.22-3.03-3.08-3.03h-4.39c-1.81,0-3.08,1.17-3.08,3.03v8.79Z"/></g><g id="Ultralight-S" transform="matrix(1 0 0 1 508.469 696)"><path class="cls-2" d="M504.51,669.44c0,4.11,2.46,6.57,6.58,6.57h51.32c4.12,0,6.58-2.45,6.58-6.57v-37.12l-29.79-25.03c-1.78-1.44-3.26-1.4-4.99,0l-29.7,24.93v37.21Zm-8.1-34.87c.36,0,.57-.14,.85-.37l37.7-31.64c.57-.52,1.15-.76,1.81-.76,.62,0,1.19,.24,1.77,.76l37.7,31.64c.29,.23,.5,.37,.85,.37,.71,0,1.13-.48,1.13-1.02,0-.43-.17-.69-.6-1.06l-37.61-31.57c-1.06-.91-2.18-1.36-3.25-1.36s-2.23,.45-3.29,1.36l-37.61,31.57c-.43,.37-.6,.63-.6,1.06,0,.54,.46,1.02,1.13,1.02Zm67.01-12.62l5.6,4.75v-15.54c0-.86-.58-1.44-1.44-1.44h-2.71c-.85,0-1.44,.58-1.44,1.44v10.79Z"/><path class="cls-2" d="M536.48,645.13c1.59-1.11,2.8-2.2,4.24-2.92,6.29-3.15,13.71,.99,13.64,7.52-.03,2.47-.89,4.6-2.78,6.38-4.26,4.01-8.51,8.03-12.78,12.03-1.46,1.37-2.47,1.4-3.89,.07-4.34-4.06-8.72-8.08-12.96-12.23-4.21-4.12-3.56-10.12,1.3-13.4,3.41-2.31,8.49-1.85,11.97,1.11,.52,.44,.9,1.02,1.27,1.44Z"/></g></g></g><path class="cls-2" d="M2910.19,650.62c1.48-1.04,2.61-2.05,3.95-2.72,5.86-2.94,12.78,.92,12.71,7.01-.03,2.3-.83,4.29-2.59,5.95-3.97,3.74-7.93,7.48-11.91,11.21-1.36,1.28-2.3,1.31-3.63,.07-4.05-3.78-8.13-7.53-12.08-11.4-3.92-3.84-3.32-9.43,1.21-12.49,3.18-2.15,7.91-1.72,11.16,1.04,.48,.41,.84,.95,1.18,1.34Z"/></g></svg>