<?xml version="1.0" encoding="UTF-8"?>
<svg id="Layer_2" data-name="Layer 2" xmlns="http://www.w3.org/2000/svg" viewBox="0 0 35.96 94.95">
  <g id="icon">
    <g>
      <path d="M23.23,6.65c.12.13.38,0,.54.47.23.71-.02,1.61-.46,2.2-.18.25-.61.51-.73.69-.21.3-.39,1.04-.66,1.47-.21.33-.92,1.01-.99,1.27-.1.33-.05,1.72.08,2.06.15.41.72.77,1.1.97,2.1,1.11,4.73,1.34,6.19,3.44.94,1.35,1.44,3.27,1.71,4.88.4,2.36.19,4.74.53,7.1.32,2.21,1.13,4.35,1.4,6.56.27,2.19.39,4.39.75,6.56.21,1.27.86,1.25,1.6,2.08s1.04,1.93,1.44,2.96c.11.29.44.53.11.93-.43.52-1.12-.08-1.23.03.09,1.07.63,2.59-.46,3.33-.18.12-.65.31-.86.29-.15-.01-1.15-.26-1.29-.33-.24-.11-.34-.31-.53-.44-.64-.42-.79-.29-1.17-1.1s-.72-2.45-.9-3.36c-.32-1.57-.12-2.96-.5-4.54-.41-1.69-1.12-3.31-1.62-4.98-1.07-3.59-1.12-7.33-1.59-11.02-.04-.32-.19-.67-.19-1.01l-.14.15c-.03.53-.21,1.04-.24,1.57-.18,2.53-.24,5.29.08,7.81.24,1.91.7,3.76,1.01,5.65.84,5.08.9,10.33.2,15.45-.44,3.19-1.49,6.49-1.87,9.64-.25,2.03.32,3.99.39,6.01.12,3.37-.72,8.1-1.56,11.38-.29,1.13-.93,2.68-.9,3.82.02.67,1.85,2.76,2.23,3.59.28.6.4,1.31-.13,1.82-.49.48-.89.47-1.47.59-1.11.24-2.08.36-3.25.24-.48-.05-.99-.37-1.06-.88-.21-1.43.12-3.26.13-4.72.03-5.08-.25-10.19-.07-15.26.07-2.11.28-3.95.19-6.08-.13-3.06-.42-6.13-.58-9.19-.17-3.33-.24-6.7-.27-10.03,0-.29-.14-.43-.37-.18-.01.04,0,.08-.01.12-.13,1.08-.03,2.72-.06,3.88-.13,4.45-.36,8.89-.64,13.33-.03.53-.17,1.08-.2,1.62-.12,2.45.18,4.92.26,7.38.17,5.51-.09,11.04.07,16.55.02.71.07,1.78,0,2.46-.04.39-.25.79-.63.92-.42.15-.64.07-1.01.08-1.06.01-2.4-.04-3.4-.35-1.11-.35-1.34-1.32-.9-2.32.39-.88,2.25-2.82,2.25-3.62,0-1.06-.51-2.55-.79-3.61-.79-3.04-1.51-6.37-1.66-9.53s.73-5.97.13-9.31c-1.03-5.72-2.36-10.94-2.13-16.89.18-4.67,1.45-9.19,1.81-13.84.18-2.3.16-4.56-.07-6.86-.05-.51-.14-1.02-.26-1.52-.23.13-.1.51-.13.74-.47,3.7-.68,7.85-1.75,11.38-.53,1.74-1.24,3.42-1.66,5.2-.32,1.36-.16,2.18-.28,3.47-.05.55-.28,1.3-.41,1.86-.19.81-.58,2.71-1.26,3.2-.18.13-.42.17-.61.3-.2.13-.29.32-.53.43-.44.2-1.51.36-1.95.15-.24-.12-.79-.77-.84-1.03-.15-.73.18-1.62.15-2.35-.12-.17-.46.12-.65.12-.07,0-.38-.1-.44-.13-.49-.29.11-1.18.25-1.54.53-1.37.8-2.27,2.04-3.2.08-.06.24-.06.3-.12.19-.18.4-.8.45-1.07.38-2.06.48-4.19.73-6.26.28-2.33,1.13-4.6,1.48-6.93.33-2.2.14-4.44.47-6.64.44-2.92,1.23-5.92,4.1-7.28,1.06-.5,4.25-1.33,4.83-2.15.32-.45.42-1.9.27-2.39-.05-.18-.86-.98-1.03-1.23-.31-.45-.46-1.25-.72-1.6-.09-.12-.36-.23-.48-.36-.57-.59-.96-1.53-.75-2.36.13-.51.6-.51.67-.82.09-.42-.02-1.13.02-1.6C13.01,2.04,14.92.06,17.75,0s5.12,1.77,5.39,4.77c.03.35-.06,1.72.09,1.89ZM17.39.48c-4.65.36-4.62,5.63-3.67,9.07.55,1.98,2.42,4.36,4.68,4.11,1.6-.17,3.39-2.48,3.81-3.94C23.41,5.59,22.95.05,17.39.48ZM13.07,8.93c-.09-.51-.1-1.09-.2-1.58-.08-.4-.3-.02-.32.26-.03.4.08,1.19.52,1.32ZM23.02,8.93c.26-.43.5-1.02.34-1.53-.07-.22-.18-.35-.27-.05-.13.45-.11,1.08-.2,1.55l.13.03ZM20.5,14.85c-.07-.37,0-1.13,0-1.55,0-.07-.11-.09-.2-.07-.16.04-.6.37-.81.48-.97.48-1.75.56-2.77.14-.19-.08-1.01-.61-1.09-.58-.18.05-.08,1.03-.1,1.26-.07.84-.32,1.09-1.01,1.51-2.71,1.66-5.43,1.05-7.05,4.52-1.61,3.46-1.06,7.02-1.58,10.65-.32,2.24-1.22,4.53-1.47,6.68-.28,2.34-.27,4.9-.89,7.2-.22.8-.83.92-1.35,1.43-.88.87-1.18,2.25-1.71,3.34,0,.11.07.15.16.16.57.09.93-1.07,1.26-1.4l.17.03c.04.07.04.15.03.23-.05,1.09-.74,2.75-.47,3.78.05.21.12.38.37.34l.5-2.93c.06-.15.2-.27.37-.24.18.45-.09.9-.18,1.34-.1.53-.24,1.21-.27,1.73-.02.35-.07.66.39.52.33-.1.21-.33.28-.56.24-.78.24-1.63.44-2.41.13-.51.51-.52.44.11-.09.77-.48,1.67-.62,2.42-.1.52.58.22.76-.21.2-.47.35-1.43.43-1.96.06-.37-.15-.88.46-.8.04.85-.47,1.61-.39,2.46.43.05.6-.52.73-.85.29-.74.86-2.88.94-3.65.15-1.32-.04-2.25.28-3.66.69-2.96,2.01-5.6,2.49-8.7.42-2.77.63-5.65.92-8.46.07-.7.29-1.31.19-2.07-.04-.28-.26-.5-.19-.81.36-.1.58.57.67.85.89,2.95.93,7.3.69,10.37-.33,4.25-1.46,8.35-1.74,12.61-.35,5.27.53,10.4,1.5,15.51.33,1.73.98,3.83.89,5.58-.06,1.16-.37,2.45-.45,3.62-.21,3.08.43,7.32,1.11,10.33.38,1.68,1.47,4.09,1.28,5.77-.08.72-1.76,2.66-2.21,3.48-.16.3-.29.83-.15,1.14.24.52.37-.58.71-.52.32.28-.29.86.08,1.09.65.41.4-.96.82-.89s-.35,1.19.4,1.15c.45-.02.19-.67.48-1,.14-.16.41-.14.38.12-.04.36-.51,1.12.37.95.26-.05.12-.33.18-.54.06-.23.36-.91.66-.82s-.25.81-.22,1.06c.05.52,1.11.42,1.32-.1.33-.81-.05-2.94-.09-3.91-.25-5.95.43-12.02,0-17.99-.11-1.52-.27-2.9-.2-4.47.18-3.53.68-7.06.65-10.61l.2-3.1c-.14-1.69.26-3.65.07-5.31-.04-.36-.59-.3-.59-.58,0-.3.51-.1.68-.09.32.01.66,0,.98,0,.18,0,.74-.17.8.03.09.3-.56.35-.58.46v4.71c.19,4.84.58,9.67.84,14.49.14,2.59-.21,4.88-.26,7.43-.11,5.19.22,10.42.07,15.6-.03.92-.21,1.85-.13,2.78.01.13.05.44.09.55.1.3,1,.64,1.2.29.33-.55-.41-.87-.14-1.24.19-.26.54.34.6.51.16.42-.18,1.17.62.84.47-.2-.11-.86.08-1.24.6-.02.34.9.61,1.11,1.04.23.14-.81.59-1.17.35.24.29.7.46,1.04.99-.03,0-.94.41-1.14.35-.17.34.59.48.62.59-.27.22-1,0-1.42-.49-.95-1.29-1.73-1.83-2.63-.59-.96-.17-2.15.09-3.13,1.18-4.39,2.31-9.51,1.97-14.07-.1-1.42-.5-2.83-.39-4.27.16-2.04.83-4.27,1.21-6.29,1.2-6.34,1.65-12.45.65-18.87-.29-1.84-.75-3.66-1.02-5.51-.5-3.49-.53-9.1.51-12.47.06-.19.26-.75.48-.75l.16.11c0,.3-.2.55-.24.85-.07.55.11.96.17,1.48.33,3.02.58,6.08,1.02,9.07s1.78,5.7,2.44,8.68c.25,1.13.15,1.85.22,2.95.05.83.75,4.01,1.14,4.68.09.16.25.33.38.46.22.05.17-.47.15-.61-.03-.32-.53-1.74-.32-1.89h.26c.19.18.1.43.14.64.12.63.22,1.63.48,2.18.08.18.44.57.65.39.2-.17-.08-.65-.14-.91-.16-.66-.25-1.33-.42-1.98.21-.63.43,0,.5.34.16.82.26,1.67.42,2.49.26.36.71.48.69-.11-.01-.55-.22-1.43-.34-2-.06-.29-.32-.91-.21-1.15.1-.2.34-.16.4.05.2.82.22,1.81.42,2.62.05.18.15.6.4.31.13-.15.12-1.02.1-1.26-.06-.73-.34-1.55-.45-2.27-.01-.08-.07-.66-.06-.7.02-.09.17-.14.25-.1.07.04.52,1.01.79,1.25.18.16.61.38.58,0-.44-1.05-.73-2.23-1.49-3.11-.43-.5-1.19-.86-1.45-1.4-.07-.14-.1-.29-.14-.44-.56-2.23-.58-4.8-.88-7.08-.24-1.83-.87-3.58-1.2-5.39-.63-3.43-.21-6.86-1.15-10.24-.22-.79-.68-1.93-1.13-2.62-1.31-2.01-4.1-2.33-6.07-3.37-.46-.25-1.33-.81-1.43-1.35Z"/>
      <path d="M13.24,68.64c.32.02.48.22.83.25.17.01.34,0,.5-.02.21-.03.83-.42.83-.08-.41.76-1.86.75-2.26-.01l.1-.15Z"/>
      <path d="M20.67,68.64c.47.17.88.34,1.4.24.26-.05.63-.47.76-.08-.51.71-1.79.8-2.26,0l.11-.16Z"/>
      <path d="M4.35,47.16c-.11.87-.96,1.08-1.68,1.23,0-.41.54-.45.86-.66.3-.19.47-.54.82-.57Z"/>
      <path d="M31.65,47.1c.06,0,.79.66.97.78.12.08.66.18.61.42-.03.15-.17.04-.22.03-.46-.08-.94-.25-1.23-.65-.05-.07-.35-.58-.13-.58Z"/>
      <path d="M17.55,38.51c.53-.62,1.34.35.56.6-.4.13-.82-.29-.56-.6Z"/>
    </g>
  </g>
</svg>