<?xml version="1.0" encoding="UTF-8"?><svg id="Layer_2" xmlns="http://www.w3.org/2000/svg" viewBox="0 0 3300 2200"><defs><style>.cls-1{fill:#fff;}.cls-2{stroke:#010101;}.cls-2,.cls-3,.cls-4{fill:none;stroke-width:.5px;}.cls-3{stroke:#29aae1;}.cls-5{letter-spacing:-.07em;}.cls-6{fill:#29aae1;}.cls-7{font-family:Arial-BoldMT, Arial;}.cls-7,.cls-8{font-size:13px;isolation:isolate;}.cls-7,.cls-8,.cls-9{fill:#010101;}.cls-8{font-family:ArialMT, Arial;}.cls-10{letter-spacing:-.11em;}.cls-4{stroke:#2bace2;}.cls-11{letter-spacing:-.02em;}.cls-12{letter-spacing:-.06em;}</style></defs><g id="Layer_1-2"><g><g id="Notes"><rect id="artboard" class="cls-1" width="3300" height="2200"/><line class="cls-2" x1="263" y1="292" x2="3036" y2="292"/><text class="cls-7" transform="translate(263 322)"><tspan class="cls-11" x="0" y="0">W</tspan><tspan x="12.04" y="0">eight/Scale </tspan><tspan class="cls-12" x="84.28" y="0">V</tspan><tspan x="92.24" y="0">ariations</tspan></text><text class="cls-8" transform="translate(534.06 322)"><tspan x="0" y="0">Ultralight</tspan></text><text class="cls-8" transform="translate(843.78 322)"><tspan x="0" y="0">Thin</tspan></text><text class="cls-8" transform="translate(1139.04 322)"><tspan x="0" y="0">Light</tspan></text><text class="cls-8" transform="translate(1427.08 322)"><tspan x="0" y="0">Regular</tspan></text><text class="cls-8" transform="translate(1723.44 322)"><tspan x="0" y="0">Medium</tspan></text><text class="cls-8" transform="translate(2016.17 322)"><tspan x="0" y="0">Semibold</tspan></text><text class="cls-8" transform="translate(2326.97 322)"><tspan x="0" y="0">Bold</tspan></text><text class="cls-8" transform="translate(2618.27 322)"><tspan x="0" y="0">Heavy</tspan></text><text class="cls-8" transform="translate(2917.51 322)"><tspan x="0" y="0">Black</tspan></text><line class="cls-2" x1="263" y1="1903" x2="3036" y2="1903"/><g transform="matrix(0.2 0 0 0.2 263 1933)"><path class="cls-9" d="M272.25,1933.83c4.36,0,7.89-3.53,7.89-7.88s-3.54-7.88-7.89-7.88-7.88,3.53-7.88,7.88,3.54,7.88,7.88,7.88Zm0-1.48c-3.54,0-6.39-2.86-6.39-6.4s2.85-6.4,6.39-6.4,6.4,2.86,6.4,6.4-2.86,6.4-6.4,6.4Zm-3.59-6.4c0,.43,.3,.72,.75,.72h2.1v2.12c0,.44,.29,.74,.72,.74s.74-.3,.74-.74v-2.12h2.12c.44,0,.74-.29,.74-.72s-.3-.74-.74-.74h-2.12v-2.11c0-.45-.29-.75-.74-.75s-.72,.3-.72,.75v2.11h-2.1c-.45,0-.75,.3-.75,.74Z"/></g><g transform="matrix(0.2 0 0 0.2 281.506 1933)"><path class="cls-9" d="M293.21,1935.91c5.5,0,9.96-4.46,9.96-9.96s-4.46-9.96-9.96-9.96-9.96,4.46-9.96,9.96,4.46,9.96,9.96,9.96Zm0-1.66c-4.59,0-8.3-3.71-8.3-8.3s3.71-8.3,8.3-8.3,8.3,3.71,8.3,8.3-3.71,8.3-8.3,8.3Zm-4.53-8.3c0,.48,.33,.8,.83,.8h2.87v2.88c0,.49,.33,.83,.81,.83s.83-.33,.83-.83v-2.88h2.88c.49,0,.83-.32,.83-.8s-.34-.83-.83-.83h-2.88v-2.87c0-.5-.34-.84-.83-.84s-.81,.34-.81,.84v2.87h-2.87c-.5,0-.83,.34-.83,.83Z"/></g><g transform="matrix(0.2 0 0 0.2 304.924 1933)"><path class="cls-9" d="M319.89,1938.66c7.02,0,12.72-5.69,12.72-12.71s-5.7-12.72-12.72-12.72-12.71,5.7-12.71,12.72,5.69,12.71,12.71,12.71Zm0-1.82c-6.03,0-10.9-4.87-10.9-10.9s4.87-10.9,10.9-10.9,10.9,4.87,10.9,10.9-4.87,10.9-10.9,10.9Zm-5.77-10.9c0,.52,.37,.88,.92,.88h3.95v3.96c0,.54,.37,.92,.89,.92s.91-.37,.91-.92v-3.96h3.96c.54,0,.92-.36,.92-.88,0-.55-.37-.92-.92-.92h-3.96v-3.95c0-.55-.37-.93-.91-.93s-.89,.38-.89,.93v3.95h-3.95c-.55,0-.92,.37-.92,.92Z"/></g><text class="cls-7" transform="translate(263 1953)"><tspan x="0" y="0">Design </tspan><tspan class="cls-12" x="46.95" y="0">V</tspan><tspan x="54.91" y="0">ariations</tspan></text><text class="cls-8" transform="translate(263 1971)"><tspan x="0" y="0">Symbols are supported in up to nine weights and three scales.</tspan></text><text class="cls-8" transform="translate(263 1989)"><tspan x="0" y="0">For optimal layout with text and other symbols, vertically align</tspan></text><text class="cls-8" transform="translate(263 2007)"><tspan x="0" y="0">symbols with the adjacent text.</tspan></text><line class="cls-4" x1="776" y1="1919" x2="776" y2="1933"/><g transform="matrix(0.2 0 0 0.2 776 1933)"><path class="cls-9" d="M779.31,1933.16c.52,0,.77-.2,.96-.74l1.26-3.45h5.76l1.26,3.45c.19,.55,.44,.74,.95,.74s.85-.31,.85-.8c0-.17-.03-.32-.11-.53l-4.58-12.2c-.22-.6-.63-.9-1.25-.9s-1.02,.29-1.23,.89l-4.58,12.22c-.08,.21-.11,.36-.11,.53,0,.49,.31,.79,.82,.79Zm2.7-5.67l2.37-6.57h.05l2.37,6.57h-4.79Z"/></g><line class="cls-4" x1="792.84" y1="1919" x2="792.84" y2="1933"/><text class="cls-7" transform="translate(776 1953)"><tspan x="0" y="0">Margins</tspan></text><text class="cls-8" transform="translate(776 1971)"><tspan x="0" y="0">Leading and trailing margins on the left and right side of each symbol</tspan></text><text class="cls-8" transform="translate(776 1989)"><tspan x="0" y="0">can be adjusted by modifying the x-location of the margin guidelines.</tspan></text><text class="cls-8" transform="translate(776 2007)"><tspan x="0" y="0">Modifications are automatically applied proportionally to all</tspan></text><text class="cls-8" transform="translate(776 2025)"><tspan x="0" y="0">scales and weights.</tspan></text><g transform="matrix(0.2 0 0 0.2 1289 1933)"><path class="cls-9" d="M1291.84,1934.87l1.7,1.71c.86,.87,1.85,.81,2.77-.21l10.69-11.79-.97-.98-10.62,11.68c-.35,.4-.68,.5-1.15,.03l-1.17-1.16c-.47-.46-.36-.8,.04-1.16l11.47-10.8-.98-.97-11.59,10.89c-.99,.92-1.06,1.89-.21,2.76h0Zm6.42-18.19c-.42,.41-.45,.99-.21,1.38,.23,.36,.69,.6,1.34,.43,1.46-.34,2.99-.4,4.41,.54l-.59,1.46c-.34,.83-.17,1.42,.37,1.96l2.29,2.31c.49,.49,.9,.51,1.46,.41l1.06-.2,.66,.67-.04,.56c-.04,.5,.09,.88,.58,1.36l.76,.74c.48,.48,1.09,.51,1.56,.04l2.91-2.92c.47-.47,.45-1.06-.03-1.54l-.77-.76c-.48-.48-.85-.63-1.33-.6l-.58,.05-.64-.63,.24-1.12c.13-.57-.03-1.01-.62-1.59l-2.2-2.19c-3.34-3.32-7.77-3.24-10.66-.35h0Zm1.49,.37c2.43-1.78,5.72-1.47,7.95,.75l2.43,2.41c.23,.23,.27,.42,.21,.76l-.32,1.48,1.5,1.48,.99-.06c.25,0,.33,0,.53,.21l.58,.58-2.44,2.44-.58-.58c-.2-.2-.22-.27-.21-.54l.07-.98-1.49-1.48-1.52,.25c-.32,.07-.47,.04-.71-.2l-2-2c-.25-.23-.28-.4-.13-.77l.88-2.09c-1.56-1.46-3.59-2.08-5.63-1.48-.16,.04-.21-.09-.09-.2h0Z"/></g><text class="cls-7" transform="translate(1289 1953)"><tspan x="0" y="0">Exporting</tspan></text><text class="cls-8" transform="translate(1289 1971)"><tspan x="0" y="0">Symbols should be outlined when exporting to ensure the</tspan></text><text class="cls-8" transform="translate(1289 1989)"><tspan x="0" y="0">design is preserved when submitting to Xcode.</tspan></text><text id="template-version" class="cls-8" transform="translate(2952.42 1933)"><tspan class="cls-10" x="0" y="0">T</tspan><tspan x="6.5" y="0">emplate </tspan><tspan class="cls-5" x="56.36" y="0">v</tspan><tspan x="61.9" y="0">.6.0</tspan></text><text class="cls-8" transform="translate(2865.46 1951)"><tspan x="0" y="0">Requires Xcode 16 or greater</tspan></text><text id="descriptive-name" class="cls-8" transform="translate(2794.65 1969)"><tspan x="0" y="0">Generated from chart.ba</tspan><tspan class="cls-12" x="141.63" y="0">r</tspan><tspan x="145.24" y="0">.xaxis.ascending</tspan></text><text class="cls-8" transform="translate(2901.58 1987)"><tspan class="cls-12" x="0" y="0">T</tspan><tspan x="7.22" y="0">ypeset at 100.0 points</tspan></text><text class="cls-8" transform="translate(263 726)"><tspan x="0" y="0">Small</tspan></text><text class="cls-8" transform="translate(263 1156)"><tspan x="0" y="0">Medium</tspan></text><text class="cls-8" transform="translate(263 1586)"><tspan x="0" y="0">Large</tspan></text></g><g id="Guides"><g id="H-reference" transform="matrix(1 0 0 1 339 696)"><path class="cls-6" d="M339.99,696h2.64l25.69-67.13h.7v-3.33h-1.91l-27.13,70.46Zm10.69-24.48h35.29l-.75-2.25h-33.79l-.75,2.25Zm43.43,24.48h2.64l-27.13-70.46h-1.21v3.33l25.69,67.13Z"/></g><line id="Baseline-S" class="cls-3" x1="263" y1="696" x2="3036" y2="696"/><line id="Capline-S" class="cls-3" x1="263" y1="625.54" x2="3036" y2="625.54"/><g id="H-reference-2" transform="matrix(1 0 0 1 339 1126)"><path class="cls-6" d="M339.99,1126h2.64l25.69-67.13h.7v-3.33h-1.91l-27.13,70.46Zm10.69-24.48h35.29l-.75-2.25h-33.79l-.75,2.25Zm43.43,24.48h2.64l-27.13-70.46h-1.21v3.33l25.69,67.13Z"/></g><line id="Baseline-M" class="cls-3" x1="263" y1="1126" x2="3036" y2="1126"/><line id="Capline-M" class="cls-3" x1="263" y1="1055.54" x2="3036" y2="1055.54"/><g id="H-reference-3" transform="matrix(1 0 0 1 339 1556)"><path class="cls-6" d="M339.99,1556h2.64l25.69-67.13h.7v-3.33h-1.91l-27.13,70.46Zm10.69-24.48h35.29l-.75-2.25h-33.79l-.75,2.25Zm43.43,24.48h2.64l-27.13-70.46h-1.21v3.33l25.69,67.13Z"/></g><line id="Baseline-L" class="cls-3" x1="263" y1="1556" x2="3036" y2="1556"/><line id="Capline-L" class="cls-3" x1="263" y1="1485.54" x2="3036" y2="1485.54"/><line id="right-margin-Black-S" class="cls-4" x1="2991.8" y1="600.78" x2="2991.8" y2="720.12"/><line id="left-margin-Black-S" class="cls-4" x1="2875" y1="600.78" x2="2875" y2="720.12"/><line id="right-margin-Regular-S" class="cls-4" x1="1502.58" y1="600.78" x2="1502.58" y2="720.12"/><line id="left-margin-Regular-S" class="cls-4" x1="1397.11" y1="600.78" x2="1397.11" y2="720.12"/><line id="right-margin-Ultralight-S" class="cls-4" x1="610.77" y1="600.78" x2="610.77" y2="720.12"/><line id="left-margin-Ultralight-S" class="cls-4" x1="508.66" y1="600.78" x2="508.66" y2="720.12"/></g><g id="Symbols"><g id="Black-S" transform="matrix(1 0 0 1 2875 696)"><path class="cls-2" d="M2891.8,698.93h83.2c4.05,0,7.03-2.69,7.03-6.84s-2.98-6.84-7.03-6.84h-83.2c-4.05,0-7.03,2.69-7.03,6.84s2.98,6.84,7.03,6.84Z"/><path class="cls-2" d="M2957.13,672.86c0,3.32,2.2,5.57,5.47,5.57h6.98c3.27,0,5.42-2.25,5.42-5.57v-44.58c0-3.37-2.15-5.62-5.42-5.62h-6.98c-3.27,0-5.47,2.25-5.47,5.62v44.58Z"/><path class="cls-2" d="M2935.35,672.86c0,3.32,2.1,5.57,5.37,5.57h7.08c3.22,0,5.42-2.25,5.42-5.57v-34.33c0-3.37-2.2-5.62-5.42-5.62h-7.08c-3.27,0-5.37,2.25-5.37,5.62v34.33Z"/><path class="cls-2" d="M2913.77,672.86c0,3.32,2.2,5.57,5.42,5.57h7.03c3.22,0,5.42-2.25,5.42-5.57v-24.07c0-3.37-2.2-5.62-5.42-5.62h-7.03c-3.22,0-5.42,2.25-5.42,5.62v24.07Z"/><path class="cls-2" d="M2891.8,672.86c0,3.32,2.2,5.57,5.42,5.57h7.03c3.22,0,5.42-2.25,5.42-5.57v-13.82c0-3.37-2.2-5.62-5.42-5.62h-7.03c-3.22,0-5.42,2.25-5.42,5.62v13.82Z"/></g><g id="Regular-S" transform="matrix(1 0 0 1 1397.11 696)"><path class="cls-2" d="M1410.39,696.39h78.91c1.9,0,3.52-1.56,3.52-3.52s-1.61-3.52-3.52-3.52h-78.91c-1.9,0-3.52,1.61-3.52,3.52s1.61,3.52,3.52,3.52Z"/><path class="cls-2" d="M1472.99,679.11c0,2.25,1.37,3.56,3.66,3.56h8.45c2.34,0,3.71-1.32,3.71-3.56v-50.39c0-2.25-1.37-3.52-3.71-3.52h-8.45c-2.29,0-3.66,1.27-3.66,3.52v50.39Z"/><path class="cls-2" d="M1452.29,679.11c0,2.25,1.37,3.56,3.71,3.56h8.4c2.34,0,3.71-1.32,3.71-3.56v-39.6c0-2.25-1.37-3.56-3.71-3.56h-8.4c-2.34,0-3.71,1.32-3.71,3.56v39.6Z"/><path class="cls-2" d="M1431.58,679.11c0,2.25,1.37,3.56,3.66,3.56h8.45c2.34,0,3.71-1.32,3.71-3.56v-28.81c0-2.15-1.37-3.52-3.71-3.52h-8.45c-2.29,0-3.66,1.37-3.66,3.52v28.81Z"/><path class="cls-2" d="M1410.88,679.11c0,2.25,1.37,3.56,3.71,3.56h8.45c2.3,0,3.66-1.32,3.66-3.56v-18.02c0-2.2-1.37-3.56-3.66-3.56h-8.45c-2.34,0-3.71,1.37-3.71,3.56v18.02Z"/><path class="cls-2" d="M1418.82,631.38c6.22,1.01,12.07,1.84,17.86,2.98,1.76,.35,3.57-.28,4.8-1.72,2.97-3.5,6.17-6.77,9.22-10.2,1.19-1.33,2.25-1.8,3.96-.89,2.79,1.5,5.78,2.52,8.58,4,1.59,.84,2.51,.4,3.62-.89,6.03-7.02,12.11-13.98,18.24-20.9,.57-.64,1.63-.76,2.46-1.13-.32,.95-.43,2.12-1.01,2.8-6.33,7.42-12.75,14.74-19.09,22.15-.97,1.13-2.48,1.47-3.77,.84-2.91-1.43-5.93-2.59-8.82-4.05-1.46-.74-2.37-.44-3.44,.79-3,3.45-6.21,6.69-9.16,10.2-1.34,1.6-2.76,1.95-4.54,1.64-5.65-.98-11.29-2-16.96-2.84-.95-.14-2.37,.23-3.14,.85-2.82,2.25-5.46,4.77-8.25,7.08-.54,.44-1.41,.39-2.13,.57,.19-.78,.14-1.88,.6-2.3,3.03-2.8,6.16-5.47,9.3-8.13,.56-.47,1.3-.67,1.68-.86Z"/></g><g id="Ultralight-S" transform="matrix(1 0 0 1 508.657 696)"><path class="cls-2" d="M519.53,694.85h80.4c.54,0,1.06-.34,1.06-1.06,0-.68-.52-1.02-1.06-1.02h-80.4c-.59,0-1.11,.34-1.11,1.02,0,.73,.52,1.06,1.11,1.06Z"/><path class="cls-2" d="M582.58,685.46c0,1.7,1.19,2.79,2.98,2.79h10.54c1.75,0,2.94-1.09,2.94-2.79v-56.07c0-1.66-1.19-2.74-2.94-2.74h-10.54c-1.8,0-2.98,1.09-2.98,2.74v56.07Z"/><path class="cls-2" d="M561.83,685.46c0,1.7,1.19,2.79,2.94,2.79h10.58c1.75,0,2.94-1.09,2.94-2.79v-44.37c0-1.7-1.19-2.79-2.94-2.79h-10.58c-1.75,0-2.94,1.09-2.94,2.79v44.37Z"/><path class="cls-2" d="M541.09,685.46c0,1.7,1.14,2.79,2.98,2.79h10.54c1.71,0,2.94-1.09,2.94-2.79v-32.71c0-1.69-1.23-2.74-2.94-2.74h-10.54c-1.84,0-2.98,1.05-2.98,2.74v32.71Z"/><path class="cls-2" d="M520.38,685.46c0,1.7,1.14,2.79,2.98,2.79h10.54c1.7,0,2.94-1.09,2.94-2.79v-21.01c0-1.7-1.23-2.79-2.94-2.79h-10.54c-1.84,0-2.98,1.09-2.98,2.79v21.01Z"/><path class="cls-2" d="M528.96,629.51c6.22,1.01,12.07,1.84,17.86,2.98,1.76,.35,3.57-.28,4.8-1.72,2.97-3.5,6.17-6.77,9.22-10.2,1.19-1.33,2.25-1.8,3.96-.89,2.79,1.5,5.78,2.52,8.58,4,1.59,.84,2.51,.4,3.62-.89,6.03-7.02,12.11-13.98,18.24-20.9,.57-.64,1.63-.76,2.46-1.13-.32,.95-.43,2.12-1.01,2.8-6.33,7.42-12.75,14.74-19.09,22.15-.97,1.13-2.48,1.47-3.77,.84-2.91-1.43-5.93-2.59-8.82-4.05-1.46-.74-2.37-.44-3.44,.79-3,3.45-6.21,6.69-9.16,10.2-1.34,1.6-2.76,1.95-4.54,1.64-5.65-.98-11.29-2-16.96-2.84-.95-.14-2.37,.23-3.14,.85-2.82,2.25-5.46,4.77-8.25,7.08-.54,.44-1.41,.39-2.13,.57,.19-.78,.14-1.88,.6-2.3,3.03-2.8,6.16-5.47,9.3-8.13,.56-.47,1.3-.67,1.68-.86Z"/></g></g></g><path class="cls-2" d="M2903.06,626.69c6.22,1.01,12.07,1.84,17.86,2.98,1.76,.35,3.57-.28,4.8-1.72,2.97-3.5,6.17-6.77,9.22-10.2,1.19-1.33,2.25-1.8,3.96-.89,2.79,1.5,5.78,2.52,8.58,4,1.59,.84,2.51,.4,3.62-.89,6.03-7.02,12.11-13.98,18.24-20.9,.57-.64,1.63-.76,2.46-1.13-.32,.95-.43,2.12-1.01,2.8-6.33,7.42-12.75,14.74-19.09,22.15-.97,1.13-2.48,1.47-3.77,.84-2.91-1.43-5.93-2.59-8.82-4.05-1.46-.74-2.37-.44-3.44,.79-3,3.45-6.21,6.69-9.16,10.2-1.34,1.6-2.76,1.95-4.54,1.64-5.65-.98-11.29-2-16.96-2.84-.95-.14-2.37,.23-3.14,.85-2.82,2.25-5.46,4.77-8.25,7.08-.54,.44-1.41,.39-2.13,.57,.19-.78,.14-1.88,.6-2.3,3.03-2.8,6.16-5.47,9.3-8.13,.56-.47,1.3-.67,1.68-.86Z"/></g></svg>